<svg xmlns="http://www.w3.org/2000/svg" width="1043.741" height="360.609" viewBox="0 0 1043.741 360.609"><defs><style>.a{fill:#fdfdfd;}.b{fill:#d23d3c;}.c{fill:#1e213a;}.d{fill:#fedd2e;}.e{fill:#ab1010;}.f{fill:#fdc3a8;}.g{fill:#e74c4d;}</style></defs><g transform="translate(406.412 40.554)"><path class="a" d="M1143.453,460.692c-1.375-.422-269.756,3.7-271.159,3.66q-31.934-.974-63.869-1.938-19.661-.607-39.321-1.276c-2.884-.1-5.764-.3-8.646-.447l-.371-.714-.494-.923a11.428,11.428,0,0,0-.171-1.677A67.452,67.452,0,0,1,757.87,431.7c1.148-8.443,4.059-16.178,10.174-22.413.631-.644,1.432-1.206,1.24-2.3,1.2-.7,2.455-1.321,3.587-2.117a54.353,54.353,0,0,1,13.672-7.023l20.882-7.209a1.7,1.7,0,0,0,1.278-.532c6.865-2.326,13.744-4.614,20.592-6.988,10.649-3.692,21.258-7.5,31.922-11.144,5.046-1.725,10.18-3.193,15.274-4.777l266.961-67.383Z" transform="translate(-506.125 -179.01)"/><path class="b" d="M951.7,590.129c-2.737-1.1-4.9.107-6.984,1.706a7.164,7.164,0,0,1-9.293.075c-1.341-1-2.665-2.107-4.467-2.217-.364-.022-.734-.119-.761-.559-.034-.577.406-.653.846-.689a5.25,5.25,0,0,1,3.65,1.407c4.307,3.293,5.759,3.268,10.258.118,2.023-1.417,4.261-2.2,6.75-1.112Z" transform="translate(-581.329 -273.528)"/><path class="c" d="M364.759,254.958a54.343,54.343,0,0,0-13.671,7.022c-1.132.8-2.388,1.416-3.588,2.117a28.678,28.678,0,0,0-5.763,1.969,4.609,4.609,0,0,1-3.057.127c-11.634-3.369-23.352-6.471-34.9-10.111-16.054-5.06-32.241-8.073-49.093-5.114-.024-.633-.068-1.267-.071-1.9q-.079-25.956-.148-51.912-.11-57.211-.2-114.421c-.012-7.77,0-15.539-.007-23.309,0-3.143-.905-4.181-4.033-4.555a30.771,30.771,0,0,0-3.6-.153c-5.509-.008-11.019.008-16.528.016q-150.445.211-300.888.42-41.638.056-83.275.063c-3.253,0-3.434.188-3.443,3.5q-.021,7.416-.038,14.832-.1,102.239-.238,204.479c0,1.993.523,2.668,2.633,2.669q115.058.069,230.116.253,68.547.083,137.1.179a12.835,12.835,0,0,0,7.033-1.751c5.835.889,11.425-.523,17.027-1.818,6.03-.159,12.063-.5,18.086.177,2.582,1.683,5.258,3.219,7.4,5.518,2.889,3.105,2.85,5.454-.367,8.261a21.2,21.2,0,0,1-3.108,2.18,46.944,46.944,0,0,1-10.6,4.7c-4.8,1.428-7.573,4.371-8.184,9.341-12.183,0-24.365-.034-36.548.015-1.811.007-3.032-.172-2.792-2.457.129-1.231-.518-2.036-1.958-1.678,1.137.65,2,.594,2.253-.91a29.856,29.856,0,0,1,2.794-8.633c.479-.945.152-1.291-.824-1.26-.494.015-.989,0-1.483,0q-205.1,0-410.2-.04c-1.083,0-3.093.819-3.084-1.01.007-1.61,1.944-.868,3-.868q162.408-.055,324.816-.034,43.753,0,87.507-.014c.871,0,1.843.318,2.551-.59,1.232-1.581,2.5-3.131,3.966-4.955h-3.022q-176.815-.092-353.629-.193c-5.15,0-10.3-.131-15.45-.2q-.032-2.54-.064-5.082c.03-6,.085-12,.085-18q.011-107.72.024-215.439c0-4.261-.755-3.87,3.784-3.87Q23.89,42.5,206.7,42.51q24.785,0,49.57-.016c2.345,0,4.391.4,5.186,3.009-.011,18.6-.054,37.2.02,55.793a16.287,16.287,0,0,0,.689,5.378,12.283,12.283,0,0,0-.348,4.422c-.529.6-.346,1.341-.348,2.024q-.037,20.813-.034,41.627c0,.748-.209,1.565.389,2.221q.067.609.133,1.218c-.205.579-.6,1.122-.341,1.788-.057.841-.163,1.681-.164,2.522q-.017,16.31-.007,32.619c0,3.647,0,3.647,3.8,3.207l1.7.064a28.725,28.725,0,0,0,6.339-.119l1.319.085a72.52,72.52,0,0,0,10.564-.067l1.3.079a44.08,44.08,0,0,0,7.185-.018l2.563.021c6.636.036,13.272.107,19.909.091a75.143,75.143,0,0,0,9.3-.163l.936.012a14.919,14.919,0,0,0,4.956-.011l.939.024a39.055,39.055,0,0,1,13.838,2.5,34.8,34.8,0,0,1,20.406,21.3,10.363,10.363,0,0,0,.447.95.926.926,0,0,0,.332.974.211.211,0,0,0,.055.293,1.389,1.389,0,0,0,.377,1.37q.057.378.113.756c-.038.731-.3,1.5.384,2.1a47.8,47.8,0,0,1-.3,10.7c-.819,4.444-2.352,8.684-3.552,13.018A2.539,2.539,0,0,0,364.759,254.958Z" transform="translate(-84.342 -36.12)"/><path class="d" d="M-199.852,410.356c5.15.069,10.3.2,15.45.2q176.815.108,353.629.193h3.022c-1.464,1.823-2.734,3.374-3.966,4.955-.707.908-1.68.589-2.551.59q-43.753.025-87.507.014-162.408,0-324.816.034c-1.054,0-2.99-.742-3,.868-.009,1.829,2,1.01,3.084,1.01q205.1.064,410.2.04c.494,0,.989.016,1.483,0,.976-.03,1.3.315.824,1.26a29.856,29.856,0,0,0-2.794,8.633c-.252,1.5-1.116,1.561-2.269.919a3.639,3.639,0,0,1-.644.106q-41.316-.054-82.631-.112-165.267-.029-330.534.027c-2.374,0-4.226-.626-5.417-2.538-1.106-1.775-2.654-2.147-4.48-2.129A116.362,116.362,0,0,1-283,423.012c-4.44-.737-8.915-1.477-12.805-4.03a3.871,3.871,0,0,1-1.96-3.5c.048-4.236.028-8.474.035-12.71.7-.312,1.409-.6,2.089-.941a4.677,4.677,0,0,0,2.451-5.459c-.61-2.277-2.517-3-4.449-3.685-.039-2.949-.116-5.9-.11-8.847.02-8.43.073-16.861.114-25.291,2.241-.8,4.371-1.7,4.548-4.563.163-2.651-.95-3.971-4.589-5.385-.074-5.78-.254-11.56.093-17.336,1.52.054,2.8.9,4.244,1.252a91.428,91.428,0,0,0,18.663,2.2c12.906.407,25.828.613,38.7-.783,4.33-.47,8.717-.89,12.678-3.006.05,6.838.14,13.677.144,20.516q.02,28.36-.01,56.72c0,1.059-.392,2.3,1.515,2.275C-214.382,410.357-207.116,410.376-199.852,410.356Z" transform="translate(-47.246 -161.57)"/><path class="e" d="M-344.971,458.063c-.007,4.236.013,8.474-.035,12.71a3.871,3.871,0,0,0,1.96,3.5c3.89,2.553,8.365,3.293,12.805,4.03a116.358,116.358,0,0,0,20.232,1.415c1.826-.018,3.374.354,4.48,2.129,1.191,1.912,3.043,2.539,5.417,2.538q165.267-.079,330.534-.027,41.316.008,82.631.112a3.642,3.642,0,0,0,.644-.106c1.457-.367,2.1.438,1.974,1.669-.24,2.285.981,2.465,2.792,2.457,12.183-.049,24.365-.019,36.548-.015a9.761,9.761,0,0,0,2.269,5,1.242,1.242,0,0,1-1.279.566c-3.462-.28-6.877.433-10.331.458-6.835.05-13.689-.022-20.5.485-6.282.468-12.563-.079-18.808.407-5.642.439-11.3-.056-16.9.441-5.366.475-10.71.309-16.059.3-12.629-.014-25.254.332-37.876.54-46.813.769-93.625.194-140.436.255-11,.014-22.015.015-33-.447-8.681-.366-17.358.1-26.012-.385-6.135-.347-12.28.016-18.38-.454-4.377-.337-8.733-.3-13.093-.284-5.783.024-11.558-.327-17.318-.6-5.36-.25-10.714-.011-16.057-.314-8.436-.478-16.877-.69-25.322-.919-5.966-.162-11.932-.6-17.908-.793q-13.384-.425-26.753-1.295c-4.627-.3-9.262-.458-13.882-.813-6.925-.532-13.872-.742-20.776-1.591-2.5-.307-5.046-.242-7.574-.44q-13.635-1.072-27.233-2.511c-9.281-.982-18.531-2.117-27.665-3.989-3.178-.651-6.484-1.276-9.251-3.264-1.683-1.209-1.739-1.965-.031-3.184a19.51,19.51,0,0,1,7.239-2.732,161.718,161.718,0,0,1,15.93-2.785c5.634-.7,11.238-1.59,16.914-1.981,4.679-.323,9.33-1.03,14-1.525,1.188-.126,2.394-.1,3.592-.127.76-.017,1.567-.168,1.553-1.056-.038-2.441.532-4.919-.362-7.316Z" transform="translate(0 -216.864)"/><path class="f" d="M569.554,472.295a9.761,9.761,0,0,1-2.269-5c.611-4.969,3.388-7.913,8.184-9.341a46.946,46.946,0,0,0,10.6-4.7,21.2,21.2,0,0,0,3.108-2.18c3.216-2.807,3.255-5.156.367-8.261-2.138-2.3-4.814-3.835-7.4-5.518-2.592-1.921-5.738-1.124-8.592-1.531-3.143-.448-6.388.44-9.494,1.353-5.6,1.3-11.192,2.708-17.028,1.818-.353-.227-.691-.483-1.061-.678-4.749-2.5-5.759-6.594-2.862-11.118a19.261,19.261,0,0,1,5.672-5.593c10.236-6.864,21.926-9.278,33.833-11.02,16.852-2.958,33.039.054,49.093,5.114,11.548,3.64,23.266,6.742,34.9,10.111a4.609,4.609,0,0,0,3.057-.127,28.678,28.678,0,0,1,5.763-1.969c.192,1.092-.609,1.655-1.24,2.3-6.115,6.234-9.026,13.97-10.174,22.413a67.454,67.454,0,0,0,1.551,25.679,11.428,11.428,0,0,1,.171,1.677,140.651,140.651,0,0,1-21.926,1.338c-8.663-.332-17.276-1.308-25.915-1.951-7.6-.566-15.223-.723-22.847-.57-5.077.1-10.154.38-15.228.315C576.251,474.813,572.6,474.633,569.554,472.295Z" transform="translate(-412.273 -195.682)"/><path class="a" d="M-316.591,416.3l-1.321.068a25.976,25.976,0,0,1-9.242-.254c-7.55-1.817-11.88-7-13.183-15.722a89.3,89.3,0,0,1-.785-15.4l0-.025.1-.436a4.477,4.477,0,0,0,.195-2.181c.859-5.222,1.581-10.493,5.147-14.771a1.183,1.183,0,0,0,.656-.844c4.686-4.986,10.747-4.892,16.871-4.575.539.028,1.087.4,1.618-.033,3.64,1.414,4.753,2.734,4.59,5.385-.177,2.867-2.307,3.765-4.549,4.563a15.23,15.23,0,0,0-5.591-.7c-4.978.021-7.027,1.362-8.222,6.136a47.43,47.43,0,0,0,.2,25.062,5.736,5.736,0,0,0,3.929,4.039,13.968,13.968,0,0,0,9.68-.4c1.931.687,3.839,1.408,4.449,3.685a4.677,4.677,0,0,1-2.451,5.459C-315.183,415.7-315.894,415.986-316.591,416.3Z" transform="translate(-28.379 -175.099)"/><path class="b" d="M651.245,173.737l-1.3-.079a17.406,17.406,0,0,1,.962-2.107A303.209,303.209,0,0,0,667.47,141.4a251.106,251.106,0,0,0,11.276-27.551,209.9,209.9,0,0,0,8.243-31.576,147.361,147.361,0,0,0,2.259-17.717,156.512,156.512,0,0,0,.284-15.794,149.532,149.532,0,0,0-2.842-23.8,113.019,113.019,0,0,0-14.682-36.4c-.662-1.06-.947-1.175-1.979-.347C665.316-8,661.623-3.28,657.877,1.362a119.421,119.421,0,0,0-14.487,23A155.6,155.6,0,0,0,633.16,51.551c-1.58,5.83-2.9,11.713-4.035,17.651-.818,4.271-1.11,8.624-2.176,12.846a16.29,16.29,0,0,1-.689-5.378c-.074-18.6-.031-37.2-.02-55.793.751.694.4,1.6.4,2.4q.033,24.576.016,49.153v2.105c1.327-5.67,2.372-11.377,3.757-17.013a169.747,169.747,0,0,1,11.019-31.639A136.764,136.764,0,0,1,655.272,2.75,116.956,116.956,0,0,1,670-13.462c1.147-1.066,1.72-.779,2.423.362a120.68,120.68,0,0,1,12.611,27.332,142.7,142.7,0,0,1,4.885,23.441c1.127,8.24.912,16.481.63,24.694A155.072,155.072,0,0,1,686.184,92.1c-.744,3.2-1.583,6.377-2.436,9.8a9.615,9.615,0,0,0,4.1-1.3,152.918,152.918,0,0,1,18.83-6.211c1.262-.355,1.76.115,1.767,1.282.049,7.913.411,15.812-.288,23.738a140.183,140.183,0,0,1-4.452,25.028,106.978,106.978,0,0,1-8.471,21.814c-1.052,1.981-1.142,3.381.547,4.861a3.41,3.41,0,0,1,1.256,2.59l-.939-.024-.678-1.289c-.428-.811-.928-1.711-1.861-1.814-1.085-.121-1.012,1.128-1.491,1.74-.34.434-.62.915-.927,1.375l-.936-.012a2.722,2.722,0,0,1,.458-1.371c1.5-2.716,3.069-5.4,4.384-8.2a132.436,132.436,0,0,0,9.878-30.2,167.5,167.5,0,0,0,2.628-24.256,82.092,82.092,0,0,0-.341-12.242c-.132-1.378-.505-1.626-1.836-1.314-6.813,1.595-13.283,4.153-19.772,6.7-2.118.831-2.851,2.291-3.472,4.258-1.93,6.11-3.853,12.224-6.316,18.156-2.726,6.566-5.446,13.125-8.654,19.482-2.221,4.4-4.4,8.825-6.814,13.124C657.35,163.133,654.282,168.426,651.245,173.737Z" transform="translate(-449.122 -11.494)"/><path class="a" d="M-223.29,325.557c-3.961,2.116-8.348,2.536-12.678,3.006-12.87,1.4-25.793,1.19-38.7.783a91.43,91.43,0,0,1-18.663-2.2c-1.44-.348-2.724-1.2-4.244-1.252-.693-2.192.491-3.283,2.328-4.026a39.9,39.9,0,0,1,11.975-2.366,265.489,265.489,0,0,1,48.126.346,34.4,34.4,0,0,1,9.264,2c1.4.557,2.75,1.212,2.815,3.032Q-223.178,325.217-223.29,325.557Zm-68.105-.3a252.338,252.338,0,0,0,60.973-.037,3.806,3.806,0,0,0,.969-.354c.639-.456,2-.152,1.9-1.3-.088-1.012-1.3-.97-2.05-1.157a76.312,76.312,0,0,0-9.576-1.47,188.965,188.965,0,0,0-23.613-.974,161.114,161.114,0,0,0-16.875.653,113.755,113.755,0,0,0-12.308,1.675c-1.009.229-2.447.283-2.563,1.406-.1,1.007,1.438.811,2.164,1.309A3,3,0,0,0-291.4,325.257Z" transform="translate(-47.25 -156.197)"/><path class="b" d="M789.645,189.361a7.671,7.671,0,0,1,4.806,1.973c3.82,2.941,6.282,2.954,10.045.018,3.552-2.772,6.792-2.8,10.361.057,2.74,2.2,6,3.026,9.528.232,4.122-3.267,6.9-3.046,11.258.1.683.494,1.429.9,2.154,1.337.375.225.78.463.576.971-.249.618-.846.538-1.258.318a15.051,15.051,0,0,1-2.1-1.412c-3.776-2.925-6.241-2.928-10.046.019-3.372,2.611-6.9,2.615-10.268.012-3.825-2.958-6.271-2.968-10.044-.042-3.462,2.685-6.9,2.687-10.416-.084a10.6,10.6,0,0,0-4.747-2.148c-.619-.114-1.748.36-1.719-.643C787.812,188.92,789,189.592,789.645,189.361Z" transform="translate(-519.389 -99.956)"/><path class="a" d="M-213.976,222.752c0,1.976-.011,3.952.007,5.928.013,1.484-.531,2.527-2.156,2.514-1.491-.011-2.1-.972-2.1-2.371q0-6.14.012-12.28c.005-1.413.67-2.326,2.156-2.307s2.082.967,2.077,2.376C-213.983,218.659-213.979,220.706-213.976,222.752Z" transform="translate(-81.849 -110.816)"/><path class="b" d="M-348.376,365.4a1.182,1.182,0,0,1-.655.843c-4.257-1.853-8.533-3.668-12.763-5.581-1.446-.654-2.327-.709-3.041,1.03-1.657,4.037-3.473,8.01-5.307,11.97-.747,1.614-.239,2.348,1.317,2.982,4.106,1.671,8.2,3.384,12.195,5.3,1.456.7,1.986.307,2.451-.932a4.481,4.481,0,0,1-.194,2.181q-.051.218-.1.436l0,.025c-3.9-.837-7.232-3.06-10.909-4.446-1.708-.644-3.281-1.685-5.018-2.2-1.907-.566-1.58-1.638-1.032-2.882,1.845-4.182,3.679-8.37,5.593-12.52,1.5-3.246,1.516-3.15,4.875-1.634C-356.8,361.852-352.574,363.594-348.376,365.4Z" transform="translate(-15.03 -173.759)"/><path class="b" d="M224.1,1.757c-6.489,0-12.979.014-19.467-.025-.582,0-1.659.489-1.648-.615.007-.746.965-.639,1.584-.639q19.89-.008,39.78.009c.557,0,1.519-.276,1.434.694-.076.866-1.006.561-1.581.563C237.5,1.765,230.8,1.757,224.1,1.757Z" transform="translate(-265.047 -17.834)"/><path class="b" d="M814.809,370.161c-.681-.6-.422-1.373-.384-2.1a1.846,1.846,0,0,0,1.818.606c10.063-2.121,17,6.22,18.068,13.28.352,2.322-.731,4.554-.787,6.871a1.7,1.7,0,0,1-1.278.532c-.17-1.232.383-2.339.6-3.5a12.544,12.544,0,0,0,.008-5.433A14.637,14.637,0,0,0,818.975,369.7,33.844,33.844,0,0,0,814.809,370.161Z" transform="translate(-530.945 -177.717)"/><path class="b" d="M136.474-40.554c.653.017.823.467.984.957,1.012,3.077,2.02,6.155,3.06,9.222.389,1.147-.062,1.193-1.006.942-3.529-.939-7.065-1.859-10.612-2.73-1.234-.3-1.181-.787-.368-1.508q3.709-3.288,7.431-6.562A3.572,3.572,0,0,1,136.474-40.554Zm-6.8,7.43c3.046.789,5.6,1.471,8.17,2.1.675.166,1.251.172,1.016-.92a62.588,62.588,0,0,0-2.182-6.341c-.207-.63-.657-.661-1.132-.225C133.7-36.818,131.86-35.125,129.679-33.124Z" transform="translate(-232.408 0)"/><path class="b" d="M813.976,365.665a1.389,1.389,0,0,1-.377-1.37C814.223,364.614,814.083,365.144,813.976,365.665Z" transform="translate(-530.609 -176.081)"/><path class="b" d="M813.248,363.026a.926.926,0,0,1-.332-.974C813.356,362.264,813.359,362.626,813.248,363.026Z" transform="translate(-530.313 -175.106)"/><path class="f" d="M762.206,528.441l.371.714C762.122,529.09,762.094,528.8,762.206,528.441Z" transform="translate(-508.244 -247.473)"/><path class="a" d="M296.806,260.374c-11.907,1.742-23.6,4.156-33.834,11.02a19.26,19.26,0,0,0-5.672,5.593c-2.9,4.523-1.887,8.615,2.862,11.118.37.195.708.451,1.061.678a12.832,12.832,0,0,1-7.033,1.751q-68.548-.155-137.1-.179-115.058-.14-230.116-.253c-2.109,0-2.635-.676-2.633-2.669q.161-102.24.238-204.479.008-7.417.038-14.832c.009-3.312.19-3.5,3.443-3.5q41.638-.03,83.275-.063,150.444-.2,300.888-.42c5.509-.008,11.018-.024,16.528-.016a30.772,30.772,0,0,1,3.6.153c3.128.374,4.029,1.412,4.033,4.555.01,7.769-.006,15.539.007,23.309q.092,57.211.2,114.421.05,25.956.148,51.912C296.737,259.107,296.781,259.741,296.806,260.374ZM168.721,181.744l2.2.047a13.947,13.947,0,0,1,1.749,3.775c.5,1.254,1.019,1.717,2.465,1.115,1.532-.638,1.35-1.421.809-2.578-.338-.726-.976-1.413-.623-2.338,3.39.012,6.78.054,10.169.025,2.775-.024,3.49-.759,3.492-3.579q.019-23.835,0-47.672c0-2.824-.822-3.607-3.693-3.609q-24.9-.007-49.791,0c-3.08,0-3.83.757-3.831,3.92q-.012,23.518,0,47.036c0,3.21.688,3.915,3.827,3.916q15.149.009,30.3-.017c.052.608.1,1.215.171,2ZM-78.6,244.205a8.107,8.107,0,0,0,8.165,7.753c8.613.045,17.226.025,25.838.012a8.729,8.729,0,0,0,9.064-9.034q.007-58.137-.012-116.274c0-.738.3-1.565-.369-2.208l-.034-.111a8.082,8.082,0,0,0-7.844-7.592c-9.024-.073-18.049-.044-27.074-.006a8.113,8.113,0,0,0-7.73,7.737c-.011,2.755-.032,5.509-.032,8.264Q-78.612,188.476-78.6,244.205Zm36.65-141.457c.705.021,1.41.062,2.116.062q82.825,0,165.65,0,57.512.005,115.023.027a3.348,3.348,0,0,0,3.436-3.55c.066-1.834.02-3.672.019-5.509,0-4.268-1.157-5.446-5.344-5.446H-39.271c-.636,0-1.275-.036-1.907.015a3.808,3.808,0,0,0-3.662,3.693c-.088,2.469-.123,4.949.015,7.413C-44.727,101.178-43.975,102.588-41.946,102.749ZM47.5,251.383q30.927,0,61.853-.007c5.6-.005,9.106-3.552,9.106-9.136q.006-57.827,0-115.655c0-5.824-3.509-9.292-9.385-9.293q-61.428,0-122.857,0c-5.966,0-9.461,3.511-9.462,9.479q0,57.4,0,114.808c0,6.45,3.324,9.8,9.745,9.8Q17,251.389,47.5,251.383Zm113-54.869q-12.4,0-24.79,0c-3.3,0-4.036.7-4.037,3.935q-.012,23.518,0,47.037c0,3.234.752,3.959,4.035,3.96q24.578.007,49.156,0c3.416,0,4.125-.7,4.126-4.065q.006-23.518,0-47.037c0-3.1-.749-3.83-3.913-3.832Q172.785,196.5,160.5,196.514Zm66.582-14.706q12.288,0,24.577,0c3.148,0,3.931-.758,3.932-3.82q.011-23.624,0-47.247c0-2.986-.812-3.809-3.729-3.81q-24.895-.007-49.789,0c-3.052,0-3.761.692-3.762,3.718q-.012,23.73,0,47.458c0,3.048.667,3.7,3.774,3.7Q214.576,181.82,227.077,181.808Zm-.005,14.708q-12.395,0-24.789,0c-3.319,0-3.98.647-3.981,3.938q-.008,23.518,0,47.036c0,3.267.694,3.957,3.982,3.957q24.577.006,49.154,0c3.389,0,4.15-.747,4.151-4.064q.005-23.413,0-46.824c0-3.329-.738-4.042-4.151-4.043Q239.255,196.512,227.072,196.515Zm-304.86,72.044-.015.178H251.85v-.178Zm3.437-170.6c1.552-.008,3.15-1.392,2.917-2.716a2.735,2.735,0,0,0-2.895-2.524,2.685,2.685,0,0,0-2.787,2.621C-77.278,96.644-75.768,97.963-74.35,97.956Zm13.949-2.63a2.567,2.567,0,0,0-2.566-2.549A2.608,2.608,0,0,0-65.655,95.4a2.614,2.614,0,0,0,2.768,2.547A2.58,2.58,0,0,0-60.4,95.326ZM-83.807,95.3a2.6,2.6,0,0,0-2.738-2.569,2.583,2.583,0,0,0-2.533,2.591A2.681,2.681,0,0,0-86.417,98,2.635,2.635,0,0,0-83.807,95.3Z" transform="translate(-126.459 -45.526)"/><path class="b" d="M647.183,180.75c.474-4.978,1.82-9.791,2.8-14.673,2.517-12.591,5.055-25.178,7.5-37.783,1.578-8.127,3.1-16.267,4.728-24.386.937-4.675,1.806-9.364,2.717-14.044a2.41,2.41,0,0,0-.291-1.627q-4.728-9.108-9.449-18.22-1.9-3.667-3.749-7.356c-.179-.355-.523-.823-.01-1.107.528-.292.953.078,1.21.54.891,1.6,1.789,3.2,2.632,4.825,3.241,6.248,6.463,12.506,9.814,19,1.418-2.025,1.182-4.267,1.562-6.3,1.592-8.478,3.077-16.976,4.521-25.481,1.256-7.4,2.393-14.812,3.606-22.216,1.02-6.228,2.084-12.448,3.109-18.675.535-3.251,1.03-6.51,1.536-9.766.082-.523-.123-1.316.708-1.26.8.054.648.856.577,1.359-.559,4.028-1.129,8.055-1.767,12.07-1.221,7.684-2.484,15.361-3.739,23.04-.405,2.478-.841,4.951-1.286,7.567a4.873,4.873,0,0,0,2.374-.961c2.183-1.153,4.384-2.273,6.584-3.393.357-.182.8-.513,1.11-.012.255.414-.011.831-.343,1.118a5.779,5.779,0,0,1-1.036.718c-2.361,1.266-4.672,2.649-7.118,3.722a3.881,3.881,0,0,0-2.394,3.354c-1.27,7.609-2.539,15.218-3.887,22.814q-2.665,15.016-5.457,30.01c-1.157,6.205-2.433,12.388-3.652,18.582a1.886,1.886,0,0,0,.225,1.809c2.861-4.37,5.665-8.638,8.451-12.917.807-1.239,1.543-2.523,2.353-3.759.342-.522.823-1.249,1.491-.875.854.477.072,1.16-.2,1.6-2.482,3.929-5.015,7.826-7.546,11.723-1.687,2.6-3.4,5.178-5.089,7.777-1.629,2.511-1.721,5.5-2.267,8.278-2.025,10.33-4.09,20.65-6.309,30.94-1.005,4.661-1.8,9.365-2.7,14.05Z" transform="translate(-458.241 -18.604)"/><path class="b" d="M683.223,263.592q.431-5.56.863-11.121c.058-.746.212-1.581,1.164-1.337.841.215.392.994.333,1.6-.257,2.647-.455,5.3-.694,8.186,1.686-.71,2.086-2.277,2.81-3.383,5.972-9.12,11.9-18.27,17.629-27.545,5.433-8.8,10.629-17.744,15.878-26.654,1.715-2.911,3.27-5.916,4.9-8.876a8.256,8.256,0,0,1,.757-1.266c.347-.426.8-.98,1.4-.507.527.419,0,.931-.213,1.31-2.786,4.974-5.551,9.96-8.421,14.885-3.72,6.382-7.529,12.712-11.3,19.063-.776,1.306-1.335,2.148,1.062,2.417,2.686.3,5.346.1,8.009.276.678.044,1.632-.133,1.649.839.018.991-.94.849-1.617.859-3.309.05-6.581-.606-9.9-.461a2.611,2.611,0,0,0-2.411,1.309c-6.158,10.085-12.68,19.936-19.15,29.82a2.188,2.188,0,0,0-.177.6Z" transform="translate(-473.916 -101.367)"/><path class="b" d="M630.1,287.368a114.528,114.528,0,0,0,1.039-11.69c.022-2.65,0-5.313-.226-7.951a79.2,79.2,0,0,0-2.688-13.985c-.44-1.614-1.161-3.15-1.754-4.722-.257-.666.136-1.209.341-1.788,2.013,1.83,2.067,4.5,2.785,6.835,2.728,8.865,2.959,18.009,2.622,27.184-.076,2.061-.954,4.073-.424,6.181Z" transform="translate(-449.198 -125.167)"/><path class="b" d="M626.576,163.9q0,22.935.007,45.871c-.6-.656-.389-1.473-.389-2.221q-.006-20.814.034-41.627C626.23,165.24,626.046,164.5,626.576,163.9Z" transform="translate(-449.097 -88.923)"/><path class="a" d="M581.437,457.352c3.106-.913,6.351-1.8,9.494-1.353,2.854.406,6-.39,8.592,1.531C593.5,456.85,587.467,457.193,581.437,457.352Z" transform="translate(-429.646 -215.914)"/><path class="g" d="M741.108,315.83c.307-.46.587-.941.927-1.375.479-.611.406-1.861,1.491-1.74.933.1,1.433,1,1.861,1.814l.678,1.29A14.935,14.935,0,0,1,741.108,315.83Z" transform="translate(-499.092 -153.644)"/><path class="g" d="M-341.1,402.282q.052-.219.1-.436Q-341.047,402.065-341.1,402.282Z" transform="translate(-28.407 -192.413)"/><path class="c" d="M-225.512,328.264a252.33,252.33,0,0,1-60.972.037c.111-.61.572-.724,1.088-.8,1.949-.272,3.889-.64,5.846-.824a245.734,245.734,0,0,1,47,.042C-230.182,326.956-227.636,326.766-225.512,328.264Z" transform="translate(-52.16 -159.241)"/><path class="f" d="M-227.938,326.273c-2.124-1.5-4.67-1.309-7.034-1.54a245.726,245.726,0,0,0-47-.042c-1.957.184-3.9.552-5.846.824-.516.072-.977.186-1.088.8a3,3,0,0,1-.984-.251c-.726-.5-2.268-.3-2.164-1.309.115-1.123,1.553-1.177,2.563-1.406a113.757,113.757,0,0,1,12.308-1.675,161.107,161.107,0,0,1,16.875-.653,188.97,188.97,0,0,1,23.613.974,76.306,76.306,0,0,1,9.576,1.47c.755.186,1.962.145,2.05,1.157.1,1.15-1.258.846-1.9,1.3A3.807,3.807,0,0,1-227.938,326.273Z" transform="translate(-49.734 -157.25)"/><path class="g" d="M118.623,292.307q-30.5,0-61,0c-6.421,0-9.744-3.351-9.745-9.8q0-57.4,0-114.808c0-5.968,3.5-9.478,9.462-9.479q61.428,0,122.857,0c5.876,0,9.384,3.468,9.385,9.293q.009,57.828,0,115.655c0,5.584-3.51,9.131-9.106,9.136Q149.549,292.327,118.623,292.307Zm5.068-13.069,3.44.012q14.933.034,29.866.067c3.319.007,6.638.029,9.956-.012a4.474,4.474,0,0,0,4.641-4.249,4.349,4.349,0,0,0-4.531-4.3c-2.047-.046-4.1-.022-6.143-.016q-16.839.055-33.676.116l-3.366-.176c-3,.184-4.735,1.826-4.694,4.436C119.223,277.585,120.937,279.152,123.691,279.237Zm47.2-87.732a5.9,5.9,0,0,0,3.664-6.281c-.047-.632-.008-1.27-.009-1.906-.008-4.823-1.785-6.577-6.678-6.577q-49.031,0-98.063,0c-.706,0-1.415-.023-2.117.036a1.99,1.99,0,0,0-1.953,1.056c1.4-.077,2.639-.206,3.88-.206q48.4-.016,96.792-.008c6.432,0,7.154.72,7.158,7.161,0,4.671-1.231,5.922-5.863,5.923q-29.864,0-59.727,0-19.168,0-38.335,0c-4.471,0-5.73-1.3-5.777-5.822-.01-1,.286-2.071-.361-3.112a7.093,7.093,0,0,0,3.519,9.834c.574.608,1.322.384,2,.384q49.85.015,99.7,0C169.468,191.984,170.3,192.253,170.9,191.505ZM149.24,223.792c.731.847,1.561.541,2.287.545,4.943.029,9.886.014,14.83.014,6.619,0,7.224.611,7.213,7.275-.008,4.532-1.211,5.723-5.814,5.724q-49.151,0-98.3,0a16.269,16.269,0,0,1-1.694-.025,4.021,4.021,0,0,1-3.809-3.845,42.49,42.49,0,0,1,0-5.291,3.873,3.873,0,0,1,3.616-3.768,20.411,20.411,0,0,1,2.538-.065q35.91-.006,71.819-.023c.819,0,1.783.359,2.647-.61a4.945,4.945,0,0,0-2.591-.313c-23.657-.012-47.316.1-70.971-.076-7.037-.052-8.342,2.486-8.118,8.224.192,4.934,1.724,6.654,6.6,6.655,32.131,0,64.263-.1,96.394.075,7.922.044,8.953-2.211,8.687-8.864-.16-4-2.042-6.011-6.006-6.02q-8.579-.02-17.16.011A2.929,2.929,0,0,0,149.24,223.792Zm-84.2-22.145c-1.613.6-1.963,1.991-2.065,3.433-.1,1.476-.073,2.965-.03,4.448.1,3.338,2.137,5.354,5.525,5.356q50.321.02,100.644,0c3.242,0,5.269-2,5.426-5.248.061-1.269.033-2.542.01-3.813-.07-3.733-2.07-5.729-5.822-5.73q-48.521-.013-97.042.007a2.449,2.449,0,0,0-2.13.5,5.083,5.083,0,0,0,2.75.333q46.932.019,93.864.011c6.725,0,7.4.67,7.4,7.358,0,4.418-1.275,5.725-5.617,5.725q-49.157,0-98.314,0a12.728,12.728,0,0,1-1.9-.038c-1.908-.29-3.513-1.251-3.667-3.243C63.832,207.714,63.131,204.549,65.038,201.648ZM70.36,266.8c0,4.448.055,8.9-.032,13.345-.028,1.413.431,1.773,1.791,1.765q13.134-.077,26.268.009c1.394.01,1.783-.407,1.774-1.782q-.084-13.134,0-26.268c.009-1.386-.4-1.792-1.785-1.783q-13.134.086-26.268,0c-1.379-.008-1.809.394-1.783,1.787C70.409,258.182,70.355,262.49,70.36,266.8Z" transform="translate(-197.583 -86.45)"/><path class="c" d="M350.854,298.412q12.289,0,24.578,0c3.164,0,3.913.733,3.913,3.832q.006,23.518,0,47.037c0,3.364-.71,4.065-4.126,4.065q-24.578.006-49.156,0c-3.282,0-4.033-.726-4.035-3.96q-.014-23.518,0-47.037c0-3.236.734-3.934,4.037-3.935Q338.459,298.409,350.854,298.412Zm-.533,46.179A17.527,17.527,0,0,0,368.079,327.4c.044-10.322-7.574-18.223-17.6-18.251a17.708,17.708,0,0,0-17.9,17.347C332.528,336.758,340.177,344.56,350.321,344.591Z" transform="translate(-316.818 -147.426)"/><path class="c" d="M468.725,230.149q-12.5,0-25,0c-3.106,0-3.772-.654-3.774-3.7q-.01-23.729,0-47.459c0-3.026.71-3.716,3.762-3.718q24.895-.006,49.789,0c2.917,0,3.728.823,3.729,3.81q.011,23.624,0,47.247c0,3.062-.784,3.816-3.932,3.82Q481.013,230.157,468.725,230.149Zm.142-9.877a17.833,17.833,0,1,0-17.592-18.131A17.791,17.791,0,0,0,468.868,220.272Z" transform="translate(-368.107 -93.867)"/><path class="c" d="M468.72,298.417q12.183,0,24.365,0c3.413,0,4.15.714,4.151,4.043q.006,23.412,0,46.824c0,3.317-.762,4.063-4.151,4.064q-24.577.007-49.154,0c-3.288,0-3.981-.69-3.982-3.957q-.006-23.518,0-47.036c0-3.291.663-3.936,3.981-3.938Q456.325,298.413,468.72,298.417Zm.484,9.186a17.824,17.824,0,1,0,17.819,17.925A17.835,17.835,0,0,0,469.2,307.6Z" transform="translate(-368.107 -147.428)"/><path class="c" d="M356.149,230.125q-15.149.011-30.3.017c-3.139,0-3.826-.707-3.827-3.917q-.014-23.518,0-47.036c0-3.163.751-3.919,3.831-3.92q24.895-.006,49.791,0c2.871,0,3.692.784,3.693,3.609q.016,23.836,0,47.672c0,2.82-.717,3.555-3.492,3.579-3.389.029-6.779-.013-10.17-.025a5.934,5.934,0,0,1-.76-.978c-1.057-2.155-.833-2.483,1.565-2.539a8.232,8.232,0,0,0,3.605-.441,25.089,25.089,0,0,1-2.452-1.956c-2.17-2.274-4.738-4.161-6.577-6.754.45-.338.909-.666,1.349-1.016a17.836,17.836,0,1,0-27.8-7.555c2.592,6.817,10.228,13.436,21.547,10.853Q356.153,224.922,356.149,230.125Z" transform="translate(-316.816 -93.867)"/><path class="f" d="M12.5,121.379c-2.027-.16-2.779-1.571-2.876-3.29-.138-2.464-.1-4.944-.015-7.413a3.808,3.808,0,0,1,3.662-3.693c.632-.051,1.271-.015,1.907-.015H293.4c4.188,0,5.341,1.178,5.344,5.446,0,1.836.047,3.675-.019,5.509a3.348,3.348,0,0,1-3.436,3.55l.023-.511a4.032,4.032,0,0,0,2.528-4.388c-.064-1.2-.012-2.4-.012-3.6,0-4.336-.734-5.083-4.984-5.083H18.446c-1.342,0-2.684-.012-4.026,0-2.824.027-3.9,1.129-3.93,4.016-.015,1.554.092,3.115-.027,4.66a3.935,3.935,0,0,0,2.5,4.383Z" transform="translate(-180.907 -64.156)"/><path class="f" d="M-50.067,164.957a8.113,8.113,0,0,1,7.73-7.737c9.025-.038,18.05-.067,27.074.006a8.082,8.082,0,0,1,7.844,7.592c-.112.021-.226.039-.34.056-1.63-5.446-5.529-7.027-10.863-6.866-7.41.224-14.831.039-22.247.061-5.3.016-8.5,3.172-8.5,8.4q-.014,58.377,0,116.753c0,5.122,3.227,8.335,8.334,8.344q12.289.022,24.579.006a10.025,10.025,0,0,0,2.714-.327c3.383-.933,4.956-3.467,5.968-6.536.543-.611.28-1.352.28-2.026q.02-54.117.015-108.234c0-3.175.061-6.349.093-9.523.671.641.368,1.469.369,2.207q.025,58.136.012,116.274a8.729,8.729,0,0,1-9.064,9.034c-8.613.013-17.226.033-25.838-.012a8.107,8.107,0,0,1-8.165-7.753,3.886,3.886,0,0,0,.2-2.074q.012-57.679,0-115.36A4.727,4.727,0,0,0-50.067,164.957Z" transform="translate(-154.983 -86.001)"/><path class="g" d="M382.42,259.6q0-5.2.009-10.407c0-1.977,0-3.953,0-6.154,2.11,1.1,2.938,3.2,4.9,3.872,1.839,2.594,4.408,4.48,6.577,6.754a25.088,25.088,0,0,0,2.452,1.956,8.232,8.232,0,0,1-3.605.441c-2.4.057-2.623.385-1.565,2.539a5.932,5.932,0,0,0,.76.978c-.353.926.285,1.613.624,2.338.541,1.157.723,1.94-.809,2.578-1.446.6-1.964.139-2.465-1.115a13.917,13.917,0,0,0-1.751-3.775c-.007-.65-.157-1.493-.754-1.549-.823-.076-1.237.722-1.441,1.5l-2.759,2.038C382.523,260.818,382.472,260.211,382.42,259.6Z" transform="translate(-343.087 -123.345)"/><path class="c" d="M-48.653,425.914H280.985v.178H-48.668Z" transform="translate(-155.594 -202.881)"/><path class="b" d="M297.6,131.73l-.023.511q-57.512-.014-115.023-.027-82.825-.007-165.65,0c-.705,0-1.41-.041-2.117-.062q.231-.215.467-.431c1.06.018,2.118.05,3.176.05q103.047.005,206.095,0Q261.062,131.768,297.6,131.73Z" transform="translate(-183.192 -74.926)"/><path class="g" d="M-50.088,170.942a4.727,4.727,0,0,1,.193,2.289q.017,57.68,0,115.36a3.886,3.886,0,0,1-.2,2.074q-.014-55.73-.027-111.459C-50.121,176.451-50.1,173.7-50.088,170.942Z" transform="translate(-154.962 -91.986)"/><path class="d" d="M-44.7,119.965c-1.418.007-2.928-1.312-2.765-2.619a2.685,2.685,0,0,1,2.787-2.621,2.735,2.735,0,0,1,2.895,2.524C-41.546,118.572-43.144,119.957-44.7,119.965Z" transform="translate(-156.113 -67.535)"/><path class="c" d="M-21.916,117.378A2.58,2.58,0,0,1-24.4,120a2.614,2.614,0,0,1-2.768-2.547,2.608,2.608,0,0,1,2.688-2.626A2.567,2.567,0,0,1-21.916,117.378Z" transform="translate(-164.944 -67.578)"/><path class="b" d="M-63.355,117.3a2.635,2.635,0,0,1-2.61,2.706,2.681,2.681,0,0,1-2.66-2.683,2.584,2.584,0,0,1,2.533-2.591A2.6,2.6,0,0,1-63.355,117.3Z" transform="translate(-146.912 -67.536)"/><path class="c" d="M387.6,271.117c.2-.78.618-1.578,1.441-1.5.6.055.747.9.754,1.549Z" transform="translate(-345.342 -134.9)"/><path class="c" d="M188.249,357.459q16.838-.058,33.676-.116c2.048-.006,4.1-.03,6.143.016a4.349,4.349,0,0,1,4.531,4.3,4.474,4.474,0,0,1-4.641,4.249c-3.318.042-6.637.019-9.956.012q-14.933-.029-29.866-.067C191.728,362.962,191.764,360.249,188.249,357.459Z" transform="translate(-258.587 -173.052)"/><path class="a" d="M160.785,273.915a2.929,2.929,0,0,1,2.166-.376q8.58-.034,17.16-.011c3.964.009,5.846,2.017,6.006,6.02.266,6.654-.765,8.908-8.687,8.864-32.13-.176-64.263-.072-96.394-.075-4.871,0-6.4-1.721-6.6-6.655-.223-5.738,1.081-8.276,8.118-8.224,23.656.175,47.314.064,70.971.076a4.945,4.945,0,0,1,2.591.313c-.865.969-1.829.609-2.647.61q-35.909.034-71.819.023a20.414,20.414,0,0,0-2.538.065,3.873,3.873,0,0,0-3.616,3.768,42.491,42.491,0,0,0,0,5.291,4.021,4.021,0,0,0,3.809,3.845,16.277,16.277,0,0,0,1.694.025q49.15,0,98.3,0c4.6,0,5.806-1.192,5.814-5.724.011-6.664-.594-7.275-7.213-7.275-4.943,0-9.886.015-14.83-.014C162.346,274.455,161.515,274.762,160.785,273.915Z" transform="translate(-209.127 -136.573)"/><path class="a" d="M76.606,233.859c-1.908,2.9-1.206,6.066-.972,9.092.154,1.992,1.76,2.953,3.667,3.243a12.728,12.728,0,0,0,1.9.038q49.157,0,98.314,0c4.341,0,5.618-1.306,5.617-5.725,0-6.688-.677-7.358-7.4-7.358q-46.932,0-93.864-.011a5.083,5.083,0,0,1-2.75-.333,2.449,2.449,0,0,1,2.13-.5q48.52-.02,97.042-.007c3.753,0,5.753,2,5.822,5.73.024,1.271.051,2.544-.01,3.813-.157,3.243-2.183,5.246-5.426,5.248q-50.322.025-100.644,0c-3.388,0-5.428-2.017-5.525-5.356-.043-1.482-.074-2.972.03-4.448C74.643,235.85,74.994,234.461,76.606,233.859Z" transform="translate(-209.151 -118.662)"/><path class="a" d="M78.439,205.858a7.093,7.093,0,0,1-3.519-9.834c.647,1.041.35,2.113.361,3.112.047,4.522,1.306,5.821,5.777,5.822q19.168.005,38.335,0,29.864,0,59.727,0c4.632,0,5.867-1.252,5.863-5.923,0-6.441-.726-7.161-7.158-7.161q-48.4,0-96.792.008c-1.241,0-2.482.129-3.88.206a1.99,1.99,0,0,1,1.953-1.056c.7-.058,1.411-.036,2.117-.036q49.031,0,98.063,0c4.893,0,6.67,1.755,6.678,6.577,0,.636-.038,1.274.009,1.906a5.9,5.9,0,0,1-3.664,6.281c-1.2.023-2.4.064-3.595.064Q128.576,205.846,78.439,205.858Z" transform="translate(-208.995 -100.707)"/><path class="a" d="M87.637,339.049c0-4.308.051-8.616-.033-12.922-.027-1.392.4-1.795,1.783-1.787q13.134.08,26.268,0c1.383-.009,1.794.4,1.785,1.783q-.084,13.134,0,26.268c.009,1.375-.38,1.792-1.774,1.782q-13.134-.092-26.268-.009c-1.36.008-1.819-.353-1.791-1.765C87.7,347.947,87.64,343.5,87.637,339.049Zm1.024-13.028c-.358,8.737-.058,17.477-.164,26.215-.013,1.1.693,1.023,1.41,1.021l26.228-.087c.118-.152.34-.3.34-.456.024-8.825.019-17.651.054-26.475,0-.924-.434-1.005-1.167-1-8.543.016-17.086.008-25.629.021C89.237,325.258,88.488,325.028,88.662,326.022Z" transform="translate(-214.862 -158.702)"/><path class="d" d="M183.5,357.422c3.515,2.79,3.479,5.5-.113,8.394l-3.44-.012c-3.7-2.823-3.631-5.763.188-8.557Z" transform="translate(-253.842 -173.015)"/><path class="b" d="M81.768,217.226q50.137-.014,100.274-.032c1.2,0,2.4-.042,3.595-.064-.59.748-1.427.478-2.168.479q-49.849.018-99.7,0C83.09,217.61,82.342,217.834,81.768,217.226Z" transform="translate(-212.325 -112.075)"/><path class="c" d="M178.766,357.246c-3.819,2.794-3.883,5.734-.188,8.557-2.754-.086-4.468-1.653-4.506-4.121C174.032,359.072,175.769,357.43,178.766,357.246Z" transform="translate(-252.47 -173.015)"/><path class="a" d="M358.448,352.857c-10.144-.031-17.793-7.833-17.74-18.095a17.708,17.708,0,0,1,17.9-17.346c10.024.028,17.641,7.928,17.6,18.251A17.527,17.527,0,0,1,358.448,352.857Z" transform="translate(-324.945 -155.692)"/><path class="a" d="M477.584,227.464a17.833,17.833,0,1,1,18.145-17.572A17.8,17.8,0,0,1,477.584,227.464Z" transform="translate(-376.824 -101.059)"/><path class="a" d="M477.924,314.675A17.823,17.823,0,1,1,460,332.487,17.849,17.849,0,0,1,477.924,314.675Z" transform="translate(-376.827 -154.5)"/><path class="a" d="M369.84,224.645c-1.96-.673-2.788-2.774-4.9-3.872,0,2.2,0,4.177,0,6.154-11.319,2.583-18.955-4.036-21.547-10.853a17.852,17.852,0,1,1,27.8,7.555C370.749,223.98,370.291,224.308,369.84,224.645Z" transform="translate(-325.6 -101.076)"/><path class="a" d="M296.014,121.674q-36.537.021-73.075.041-103.048.008-206.095,0c-1.058,0-2.117-.033-3.176-.05a3.935,3.935,0,0,1-2.5-4.383c.119-1.544.012-3.106.027-4.66.027-2.887,1.106-3.989,3.93-4.016,1.342-.013,2.684,0,4.026,0h274.4c4.25,0,4.983.747,4.984,5.083,0,1.2-.051,2.4.012,3.6A4.032,4.032,0,0,1,296.014,121.674Z" transform="translate(-181.607 -64.87)"/><path class="a" d="M-7.238,285.342c-1.012,3.069-2.585,5.6-5.968,6.536a10.026,10.026,0,0,1-2.714.327q-12.29,0-24.579-.006c-5.107-.009-8.332-3.222-8.334-8.344q-.015-58.376,0-116.753c0-5.233,3.2-8.389,8.5-8.4,7.417-.022,14.838.163,22.247-.061,5.335-.162,9.234,1.419,10.863,6.865q.015,23.608.028,47.216Q-7.2,249.031-7.238,285.342ZM-25.795,276.4l-.837-.493c-1.943-1.521-3.525-1.317-4.775.616-1.923,1.257-1.99,3.478-.157,5.2l.447.45c2.064,1.763,4.07,1.448,5.745-.9A3.484,3.484,0,0,0-25.795,276.4Zm6.546.834a3.543,3.543,0,0,0,.772,5.109,3.626,3.626,0,0,0,5.459-.616c1.6-1.1,1.361-2.676.935-4.164a3.674,3.674,0,0,0-3.546-2.581A3.219,3.219,0,0,0-19.248,277.233Zm-8.6-49.392a15.281,15.281,0,0,0,15.266-15.4,15.242,15.242,0,0,0-15.364-15.277A15.22,15.22,0,0,0-43.3,212.651,15.245,15.245,0,0,0-27.845,227.84Z" transform="translate(-155.519 -86.63)"/><path class="g" d="M24.784,290.592q.022-36.312.042-72.624.005-23.608-.028-47.216c.114-.016.227-.034.34-.055l.034.111c-.032,3.175-.093,6.349-.093,9.524q-.008,54.117-.015,108.234C25.064,289.241,25.327,289.981,24.784,290.592Z" transform="translate(-187.54 -91.88)"/><path class="g" d="M116.811,354.468l-26.228.087c-.718,0-1.423.082-1.41-1.02.106-8.738-.194-17.479.164-26.215,1.052.032,1.562.881,2.191,1.508q12.02,11.986,24.009,24C116.026,353.321,116.643,353.723,116.811,354.468Z" transform="translate(-215.537 -160)"/><path class="c" d="M116.932,353.862c-.168-.745-.785-1.148-1.274-1.637q-11.994-12.012-24.009-24c-.629-.627-1.139-1.475-2.191-1.508-.173-.994.575-.765,1.072-.766,8.543-.012,17.086-.005,25.629-.021.733,0,1.171.079,1.167,1-.036,8.825-.03,17.65-.054,26.475C117.271,353.558,117.05,353.71,116.932,353.862Z" transform="translate(-215.658 -159.393)"/><path class="g" d="M-23.581,257.505a15.245,15.245,0,0,1-15.457-15.19,15.22,15.22,0,0,1,15.359-15.483A15.242,15.242,0,0,1-8.316,242.109,15.282,15.282,0,0,1-23.581,257.505Z" transform="translate(-159.782 -116.294)"/><path class="f" d="M3.529,366.78a3.219,3.219,0,0,1,3.619-2.251,3.674,3.674,0,0,1,3.546,2.581c.426,1.488.665,3.068-.935,4.164-.109-.081-.216-.163-.321-.249,1.194-2.464.989-3.975-.7-5.133-1.6-1.1-3.06-.757-4.92,1.141C3.721,366.952,3.623,366.868,3.529,366.78Z" transform="translate(-178.296 -176.177)"/><path class="f" d="M9.185,373.016a3.626,3.626,0,0,1-5.459.616,3.543,3.543,0,0,1-.772-5.109c.094.088.192.172.292.253-.357,1.732-.425,3.418,1.337,4.472a3.553,3.553,0,0,0,4.282-.48C8.97,372.853,9.076,372.936,9.185,373.016Z" transform="translate(-177.721 -177.92)"/><path class="f" d="M-11.728,375.4c-1.675,2.35-3.682,2.664-5.746.9q.121-.151.249-.3a3.911,3.911,0,0,0,5.1-.953Z" transform="translate(-169.161 -180.759)"/><path class="f" d="M-19.291,372.45c-1.833-1.722-1.766-3.943.157-5.2l-.016-.018c-.646,1.681-1.141,3.358.142,4.984Q-19.146,372.338-19.291,372.45Z" transform="translate(-167.792 -177.359)"/><path class="f" d="M-18,366.016c1.249-1.933,2.832-2.137,4.775-.616a3.6,3.6,0,0,1-.219.315c-1.592-1-3.069-.149-4.572.284Z" transform="translate(-168.925 -176.125)"/><path class="f" d="M-8.348,367.046a3.487,3.487,0,0,1,.423,4.872l-.4-.348a4.718,4.718,0,0,0-.406-4.15Z" transform="translate(-172.965 -177.278)"/><path class="f" d="M-9.707,366.174l.837.493-.378.373c-.225-.184-.453-.367-.679-.55A3.569,3.569,0,0,0-9.707,366.174Z" transform="translate(-172.444 -176.898)"/><path class="f" d="M-17.818,376.737l-.447-.45c.1-.075.19-.153.282-.233l.414.386Q-17.7,376.586-17.818,376.737Z" transform="translate(-168.817 -181.195)"/><path class="a" d="M9.507,371.606a3.553,3.553,0,0,1-4.282.48c-1.762-1.054-1.694-2.74-1.337-4.472,1.86-1.9,3.323-2.237,4.921-1.141C10.5,367.631,10.7,369.141,9.507,371.606Z" transform="translate(-178.364 -176.758)"/><path class="a" d="M-17.968,372.027l-.414-.386c-1.283-1.626-.788-3.3-.142-4.984,1.5-.433,2.98-1.279,4.572-.284.226.184.453.367.679.551a4.726,4.726,0,0,1,.4,4.151A3.915,3.915,0,0,1-17.968,372.027Z" transform="translate(-168.418 -176.783)"/></g></svg>