<svg xmlns="http://www.w3.org/2000/svg" width="101.85" height="67.039" viewBox="0 0 101.85 67.039"><defs><style>.a{fill:#f26145;}.b,.c{fill:none;stroke:#000;stroke-width:1.5px;}.c{stroke-linecap:round;}</style></defs><g transform="translate(-2447.867 -1807.584)"><g transform="translate(1557 113.5)"><g transform="translate(905.429 1694.834)"><path class="a" d="M383.693,390.785l13.359-21.706a10.157,10.157,0,0,1,17.3,0l13.359,21.706a7.35,7.35,0,0,1-6.259,11.2h-31.5A7.35,7.35,0,0,1,383.693,390.785Z" transform="translate(-359.016 -335.698)"/><circle class="b" cx="9.358" cy="9.358" r="9.358" transform="translate(27.295)"/><circle class="a" cx="6.297" cy="6.297" r="6.297" transform="translate(71.921 38.995)"/><circle class="a" cx="1.883" cy="1.883" r="1.883" transform="translate(0 3.161)"/><path class="b" d="M375.527,389.91,388.885,368.2a10.157,10.157,0,0,1,17.3,0l13.359,21.706a7.349,7.349,0,0,1-6.259,11.2h-31.5A7.349,7.349,0,0,1,375.527,389.91Z" transform="translate(-360.882 -335.898)"/></g><g transform="translate(891.677 1710.59)"><circle class="b" cx="7.097" cy="7.097" r="7.097" transform="translate(10.43)"/><path class="c" d="M378.53,399.415H357.791a5.574,5.574,0,0,1-4.747-8.5l10.132-16.461a7.7,7.7,0,0,1,13.118,0l3.353,5.447" transform="translate(-352.208 -349.957)"/></g><g transform="translate(964.468 1710.59)"><circle class="b" cx="7.097" cy="7.097" r="7.097" transform="translate(2.815)"/><path class="c" d="M412.575,399.415h20.739a5.574,5.574,0,0,0,4.747-8.5l-10.132-16.461a7.7,7.7,0,0,0-13.118,0l-3.353,5.447" transform="translate(-411.458 -349.957)"/></g></g></g></svg>