<svg xmlns="http://www.w3.org/2000/svg" width="74.409" height="73.726" viewBox="0 0 74.409 73.726"><defs><style>.a{fill:#f26145;}.b,.c,.d,.e{fill:none;stroke:#000;stroke-width:1.5px;}.c,.e{stroke-linecap:round;}.d,.e{stroke-miterlimit:10;}</style></defs><g transform="translate(-2465.259 -1474.901)"><g transform="translate(1753.813 1423.318)"><rect class="a" width="38.76" height="39.014" rx="1.917" transform="translate(747.096 86.294)"/><path class="a" d="M3.208,0h.114A3.208,3.208,0,0,1,6.531,3.208v.114A3.208,3.208,0,0,1,3.322,6.531H3.208A3.208,3.208,0,0,1,0,3.322V3.208A3.208,3.208,0,0,1,3.208,0Z" transform="translate(750.943 57.337)"/><path class="a" d="M2.391,0h.085A2.391,2.391,0,0,1,4.868,2.391v.085A2.391,2.391,0,0,1,2.476,4.868H2.391A2.391,2.391,0,0,1,0,2.476V2.391A2.391,2.391,0,0,1,2.391,0Z" transform="translate(711.446 64.84)"/><path class="b" d="M770.662,99.766v10.265a4.774,4.774,0,0,1-4.773,4.774H727.94a4.774,4.774,0,0,1-4.773-4.774V57.107a4.774,4.774,0,0,1,4.773-4.774h26.1L770.662,68.7V82.654" transform="translate(0)"/><path class="b" d="M756.027,68.97h13.326a.337.337,0,0,0,.237-.575L754.107,52.911a.284.284,0,0,0-.484.2L753.572,66.5A2.455,2.455,0,0,0,756.027,68.97Z" transform="translate(0.54 0.009)"/><g transform="translate(733.429 75.403)"><line class="c" x2="12.172" transform="translate(12.763)"/><line class="c" x2="24.935" transform="translate(0 7.718)"/><line class="c" x2="24.935" transform="translate(0 15.436)"/><line class="c" x2="24.935" transform="translate(0 23.154)"/></g><g transform="translate(761.163 82.654)"><circle class="d" cx="8.524" cy="8.524" r="8.524"/><path class="e" d="M766.667,91.169l1.23,1.23,3.774-3.774" transform="translate(-760.39 -82.01)"/></g></g></g></svg>