<?xml version="1.0" encoding="utf-8"?>
<!-- Generator: Adobe Illustrator 16.0.0, SVG Export Plug-In . SVG Version: 6.00 Build 0)  -->
<!DOCTYPE svg PUBLIC "-//W3C//DTD SVG 1.1//EN" "http://www.w3.org/Graphics/SVG/1.1/DTD/svg11.dtd">
<svg version="1.1" id="Layer_1" xmlns="http://www.w3.org/2000/svg" xmlns:xlink="http://www.w3.org/1999/xlink" x="0px" y="0px"
	 width="140px" height="50px" viewBox="0 0 140 50" enable-background="new 0 0 140 50" xml:space="preserve">
<g>
	<path fill-rule="evenodd" clip-rule="evenodd" d="M3.629,16.435c0.027-0.519,0.054-1.026,0.084-1.608c3.956,0,7.817,0,11.775,0
		c-0.092,1.568-0.179,3.05-0.271,4.618c-0.767,0-1.508,0-2.344,0c-0.084-0.928-0.168-1.84-0.258-2.829c-1.135,0-2.209,0-3.401,0
		c0,2.229,0,4.465,0,6.773c0.432,0,0.859,0,1.364,0c0.14-0.46,0.289-0.948,0.446-1.465c0.498,0,0.974,0,1.544,0
		c0,1.59,0,3.138,0,4.751c-0.507,0-0.978,0-1.524,0c-0.147-0.488-0.294-0.978-0.452-1.498c-0.467,0-0.897,0-1.411,0
		c0,2.418,0,4.782,0,7.214c1.162,0,2.28,0,3.484,0c0.129-1.014,0.256-2.008,0.39-3.053c0.817,0,1.568,0,2.459,0
		c0.078,1.613,0.155,3.2,0.236,4.869c-4.043,0-7.953,0-11.923,0c0-0.57,0-1.084,0-1.646c0.535-0.136,1.037-0.263,1.631-0.414
		c0.023-0.331,0.067-0.68,0.068-1.029c0.005-4.336-0.033-8.672,0.028-13.008c0.015-1.076-0.255-1.604-1.38-1.516
		C4.029,16.606,3.874,16.51,3.629,16.435z"/>
	<path fill-rule="evenodd" clip-rule="evenodd" d="M90.232,32.761c1.255,0.047,1.431-0.575,1.408-1.545
		c-0.063-2.748-0.022-5.498-0.022-8.326c-0.487-0.094-0.908-0.176-1.434-0.278c0-0.437,0-0.896,0-1.48
		c1.198-0.178,2.419-0.36,3.697-0.55c0.19,0.38,0.363,0.729,0.455,0.914c0.978-0.355,1.887-0.857,2.852-1.003
		c2.498-0.38,4.158,1.101,4.189,3.642c0.034,2.751,0.008,5.503,0.008,8.293c0.466,0.147,0.882,0.277,1.384,0.435
		c-0.029,0.426-0.059,0.85-0.094,1.346c-1.515,0-2.952,0-4.572,0c0-0.579,0-1.13,0-1.679c-0.003-2.552,0.03-5.104-0.021-7.655
		c-0.03-1.525-0.697-2.108-1.979-1.955c-0.816,0.098-1.241,0.52-1.241,1.351c0.001,2.512-0.052,5.024,0.051,7.532
		c0.018,0.423,0.696,0.817,1.071,1.227c0.093-0.056,0.188-0.109,0.282-0.164c-0.021,0.425-0.046,0.85-0.072,1.344
		c-1.993,0-3.881,0-5.892,0C90.281,33.766,90.261,33.346,90.232,32.761z"/>
	<path fill-rule="evenodd" clip-rule="evenodd" d="M27.904,32.463c0.505,0.135,0.854,0.227,1.275,0.34c0,0.438,0,0.898,0,1.418
		c-1.537,0-2.977,0-4.597,0c0-0.797,0-1.549,0-2.301c-0.001-2.391,0.018-4.782-0.01-7.173c-0.016-1.384-0.707-1.985-1.958-1.834
		c-0.756,0.091-1.191,0.454-1.191,1.25c0,2.553-0.044,5.108,0.046,7.657c0.014,0.399,0.641,0.776,0.985,1.162
		c0.106-0.052,0.212-0.104,0.318-0.157c-0.026,0.425-0.051,0.849-0.083,1.364c-1.979,0-3.9,0-5.806,0
		c-0.538-1.256,0.347-1.53,1.237-1.762c0-3.199,0-6.348,0-9.565c-0.506-0.087-0.968-0.167-1.422-0.245
		c-0.378-1.087-0.127-1.625,1.083-1.653c0.877-0.02,1.75-0.24,2.672-0.377c0.16,0.38,0.295,0.701,0.38,0.905
		c1.001-0.362,1.906-0.856,2.864-1.002c2.49-0.383,4.169,1.109,4.2,3.64C27.93,26.881,27.904,29.635,27.904,32.463z"/>
	<path fill-rule="evenodd" clip-rule="evenodd" d="M122.092,22.542c-0.54-0.111-0.97-0.199-1.462-0.301c0-0.397,0-0.782,0-1.273
		c1.313-0.149,2.589-0.334,3.871-0.405c0.252-0.014,0.713,0.385,0.759,0.649c0.14,0.788,0.15,1.604,0.155,2.409
		c0.017,2.468,0.042,4.94-0.012,7.409c-0.021,0.985-0.003,1.806,1.358,1.729c-0.047,0.535-0.084,0.964-0.136,1.548
		c-1.451-0.364-3.097,0.734-4.199-0.694c-1.033,0.272-2.087,0.746-3.159,0.793c-2.536,0.109-3.87-1.288-3.893-3.869
		c-0.024-2.627-0.006-5.254-0.006-7.948c-0.521-0.124-0.98-0.234-1.508-0.361c0-0.369,0-0.754,0-1.254
		c1.282-0.149,2.556-0.337,3.836-0.411c0.256-0.015,0.728,0.377,0.771,0.635c0.143,0.87,0.17,1.763,0.178,2.647
		c0.022,2.145-0.017,4.292,0.016,6.437c0.024,1.604,1.034,2.42,2.441,1.92c0.403-0.143,0.936-0.684,0.945-1.056
		C122.126,28.282,122.092,25.415,122.092,22.542z"/>
	<path fill-rule="evenodd" clip-rule="evenodd" d="M43.406,32.904c0.302,1.073-0.106,1.448-1.204,1.396
		c-1.529-0.071-3.065-0.019-4.633-0.019c-0.091-0.757-0.333-1.385,0.635-1.645c0.248-0.066,0.531-0.578,0.536-0.889
		c0.042-2.716,0.067-5.434-0.023-8.145c-0.014-0.414-0.646-0.807-0.991-1.209c-0.11,0.069-0.221,0.138-0.332,0.207
		c0-0.462,0-0.924,0-1.47c1.312-0.181,2.58-0.356,3.865-0.533c0.164,0.379,0.304,0.702,0.4,0.926
		c1.072-0.314,2.097-0.698,3.157-0.903c1.22-0.236,1.543,0.127,1.422,1.347c-0.089,0.884-0.188,1.768-0.29,2.734
		c-0.753,0-1.452,0-2.207,0c-0.118-0.666-0.222-1.25-0.325-1.826c-1.025-0.018-1.375,0.431-1.346,1.42
		c0.063,2.228,0.02,4.457,0.02,6.687C42.091,32.451,42.091,32.451,43.406,32.904z"/>
	<path fill-rule="evenodd" clip-rule="evenodd" d="M74.038,20.593c0.157,0.366,0.298,0.692,0.396,0.919
		c1.123-0.313,2.218-0.671,3.339-0.913c0.896-0.193,1.403,0.177,1.267,1.191c-0.13,0.955-0.218,1.915-0.34,3.01
		c-0.771-0.042-1.474-0.08-2.213-0.12c-0.096-0.648-0.178-1.197-0.265-1.779c-1.003-0.057-1.386,0.328-1.361,1.329
		c0.058,2.306,0.055,4.616,0.002,6.922c-0.021,0.958,0.066,1.699,1.377,1.634c-0.025,0.502-0.047,0.922-0.072,1.417
		c-1.971,0-3.855,0-5.812,0c-0.139-0.729-0.316-1.424,0.781-1.594c0.148-0.023,0.354-0.351,0.354-0.539
		c0.023-3.066,0.017-6.133,0.017-9.229c-0.515-0.082-0.902-0.144-1.34-0.213c-0.255-0.987-0.213-1.644,1.076-1.661
		C72.162,20.955,73.077,20.729,74.038,20.593z"/>
	<path fill-rule="evenodd" clip-rule="evenodd" d="M133.808,24.667c-0.121-0.654-0.23-1.24-0.336-1.809
		c-1.041-0.01-1.277,0.502-1.258,1.39c0.049,2.348,0.027,4.698,0.011,7.047c-0.005,0.824-0.07,1.643,1.217,1.424
		c0,0.552,0,0.978,0,1.484c-1.952,0-3.869,0-5.873,0c0.023-0.458,0.043-0.851,0.065-1.333c1.175-0.047,1.222-0.818,1.207-1.742
		c-0.042-2.743-0.015-5.488-0.015-8.268c-0.512-0.088-0.898-0.156-1.369-0.237c0-0.474,0-0.932,0-1.487
		c1.279-0.18,2.547-0.358,3.854-0.542c0.167,0.356,0.312,0.668,0.416,0.894c1.168-0.317,2.232-0.687,3.33-0.882
		c1.075-0.191,1.41,0.21,1.291,1.291c-0.03,0.282-0.1,0.558-0.133,0.84C135.965,24.852,135.967,24.852,133.808,24.667z"/>
	<path fill-rule="evenodd" clip-rule="evenodd" d="M30.621,22.737c-1.603,0.126-1.66-0.722-1.363-1.94
		c1.597,0.382,1.92-0.712,2.215-1.982c0.331-1.421,1.562-0.427,2.475-0.919c0,1.043,0,1.905,0,2.885c0.856,0,1.567,0,2.393,0
		c-0.06,0.637-0.106,1.144-0.16,1.728c-0.712,0.106-1.379,0.206-2.167,0.325c0,2.889-0.039,5.754,0.05,8.614
		c0.011,0.347,0.665,0.764,1.104,0.978c0.319,0.157,0.775,0.03,1.147,0.03c0.32,1.697,0.271,1.777-1.255,1.941
		c-0.442,0.047-0.891,0.049-1.335,0.045c-2.035-0.022-3.059-1.004-3.092-3.069c-0.04-2.432-0.011-4.863-0.011-7.295
		C30.621,23.678,30.621,23.278,30.621,22.737z"/>
	<path fill-rule="evenodd" clip-rule="evenodd" d="M136.28,33.73c-0.455,0.286-0.751,0.617-0.97,0.572
		c-0.244-0.052-0.586-0.449-0.577-0.685c0.01-0.222,0.413-0.586,0.654-0.594C135.62,33.017,135.865,33.382,136.28,33.73z"/>
	<path fill-rule="evenodd" clip-rule="evenodd" d="M68.546,22.922c-0.653-1.89-2.112-2.753-4.095-2.45
		c-0.952,0.146-1.848,0.655-2.831,1.022c-0.097-0.227-0.25-0.585-0.441-1.031c-1.282,0.177-2.553,0.353-3.87,0.535
		c0,0.526,0,0.956,0,1.399c0.475,0.109,0.9,0.208,1.427,0.329c0,5.515,0,10.933,0,16.424c-1.012,0.105-1.65,0.504-1.156,1.778
		c1.47,0,3.001-0.061,4.526,0.019c1.19,0.063,1.521-0.388,1.205-1.501c-0.401-0.103-0.785-0.2-1.191-0.304c0-1.668,0-3.297,0-4.993
		c0.409,0.094,0.716,0.183,1.029,0.234c2.595,0.433,4.599-0.48,5.376-2.655C69.564,28.821,69.554,25.838,68.546,22.922z
		 M65.613,31.239c-0.071,1.05-0.971,1.355-2.472,1.22c-1.065-0.097-1.167-0.72-1.123-1.584c0.054-1.05,0.013-2.104,0.013-3.158
		c0-1.133,0.018-2.268-0.005-3.401c-0.017-0.83,0.278-1.445,1.12-1.627c0.924-0.202,1.802-0.125,2.275,0.875
		c0.153,0.326,0.33,0.687,0.328,1.032C65.741,26.812,65.764,29.031,65.613,31.239z"/>
	<path fill-rule="evenodd" clip-rule="evenodd" d="M113.287,24.288c-0.018-0.196-0.118-0.385-0.186-0.575
		c-0.677-1.918-1.899-3.192-4.038-3.302c-2.176-0.111-3.884,0.713-4.903,2.69c-1.146,2.222-1.291,4.573-0.648,6.96
		c1.193,4.434,5.893,5.911,9.567,2.939c-0.186-0.398-0.381-0.818-0.573-1.229c-3.9,1.344-5.908,0.15-5.734-3.483
		c1.235,0,2.494,0.113,3.722-0.035c1.023-0.123,2.507,0.769,2.981-0.637C113.806,26.639,113.389,25.405,113.287,24.288z
		 M106.49,26.549c0.293-1.2,0.461-2.383,0.879-3.467c0.389-1.007,1.91-0.999,2.42,0.045c0.477,0.979,0.664,2.1,1.056,3.422
		C109.244,26.549,108.012,26.549,106.49,26.549z"/>
	<path fill-rule="evenodd" clip-rule="evenodd" d="M54.143,28.281c3.257-0.074,3.423-0.301,2.736-3.553
		c-0.042-0.197-0.098-0.391-0.155-0.584c-0.716-2.437-2.091-3.63-4.318-3.75c-2.254-0.122-4.111,1.074-5.031,3.263
		c-0.845,2.008-0.916,4.084-0.446,6.182c1.018,4.548,5.878,6.187,9.613,3.18c-0.165-0.4-0.339-0.818-0.506-1.225
		c-4.009,1.291-5.663,0.313-5.867-3.507C51.497,28.286,52.821,28.311,54.143,28.281z M49.961,26.572
		c0.254-1.124,0.394-2.17,0.752-3.135c0.16-0.431,0.747-0.96,1.157-0.976c0.49-0.019,1.242,0.345,1.448,0.759
		c0.4,0.803,0.54,1.75,0.688,2.653c0.032,0.198-0.346,0.654-0.556,0.668C52.375,26.609,51.293,26.572,49.961,26.572z"/>
	<path fill-rule="evenodd" clip-rule="evenodd" d="M86.928,28.28c3.214-0.07,3.436-0.37,2.733-3.58
		c-0.051-0.236-0.129-0.468-0.201-0.7c-0.737-2.319-2.056-3.447-4.2-3.598c-2.235-0.157-4.071,0.949-5.036,3.074
		c-0.924,2.033-1,4.16-0.521,6.301c1.075,4.785,5.147,5.524,8.522,3.988c1.278-0.583,1.288-0.734,0.435-1.921
		c-3.878,1.202-5.632,0.163-5.709-3.56C84.344,28.285,85.637,28.308,86.928,28.28z M82.721,26.565
		c0.313-1.227,0.5-2.439,0.943-3.549c0.371-0.929,1.885-0.906,2.353,0.068c0.484,1.006,0.676,2.153,1.068,3.481
		C85.425,26.565,84.233,26.565,82.721,26.565z"/>
</g>
</svg>
