<?xml version="1.0" encoding="utf-8"?>
<!-- Generator: Adobe Illustrator 16.0.0, SVG Export Plug-In . SVG Version: 6.00 Build 0)  -->
<!DOCTYPE svg PUBLIC "-//W3C//DTD SVG 1.1//EN" "http://www.w3.org/Graphics/SVG/1.1/DTD/svg11.dtd">
<svg version="1.1" id="Layer_1" xmlns="http://www.w3.org/2000/svg" xmlns:xlink="http://www.w3.org/1999/xlink" x="0px" y="0px"
	 width="140px" height="50px" viewBox="0 0 140 50" enable-background="new 0 0 140 50" xml:space="preserve">
<g>
	<path fill="#F7981E" d="M100.075,16.981c0-0.154-0.012-0.31,0.002-0.461c0.084-0.862-0.027-1.518-0.831-2.168
		c-1.303-1.056-1.138-3.122,0.123-4.204c1.31-1.124,3.236-0.929,4.266,0.431c1.03,1.359,0.701,3.287-0.75,4.208
		c-0.307,0.195-0.394,0.4-0.388,0.738c0.019,1.042,0.02,2.084,0,3.126c-0.007,0.339,0.102,0.457,0.442,0.522
		c3.285,0.64,5.799,3.121,6.393,6.277c0.644,3.421-1.222,6.894-4.488,8.37c-1.704,0.769-3.47,0.983-5.296,0.58
		c-0.298-0.066-0.424,0.013-0.569,0.246c-0.752,1.199-1.512,2.396-2.288,3.58c-0.187,0.282-0.217,0.513-0.104,0.843
		c0.456,1.327-0.283,2.737-1.608,3.139c-1.331,0.404-2.717-0.35-3.106-1.689c-0.383-1.32,0.347-2.786,1.701-3.015
		c0.812-0.136,1.141-0.579,1.501-1.157c0.542-0.867,1.104-1.725,1.677-2.572c0.178-0.265,0.188-0.388-0.106-0.591
		c-1.745-1.196-2.929-2.798-3.344-4.9c-0.515-2.608,0.226-4.862,2.036-6.766c0.363-0.381,0.325-0.519-0.084-0.811
		c-3.153-2.249-6.293-4.522-9.43-6.797c-0.208-0.15-0.361-0.16-0.592-0.053c-1.265,0.583-2.688,0.337-3.648-0.608
		c-0.959-0.942-1.23-2.393-0.682-3.64c0.533-1.21,1.774-1.979,3.116-1.927c1.876,0.07,3.277,1.742,3.045,3.673
		c-0.044,0.362,0.052,0.548,0.33,0.756c3.286,2.476,6.565,4.961,9.836,7.458c0.283,0.217,0.505,0.254,0.822,0.101
		c0.524-0.252,1.084-0.423,1.661-0.491c0.257-0.03,0.308-0.141,0.305-0.358c-0.007-0.613-0.002-1.227-0.002-1.84
		C100.035,16.981,100.056,16.981,100.075,16.981 M101.339,22.333c-2.586-0.017-4.73,1.993-4.74,4.443
		c-0.011,2.439,2.08,4.459,4.645,4.487s4.753-1.979,4.763-4.365C106.017,24.377,103.943,22.35,101.339,22.333 M101.263,10.031
		c-0.358,0.06-0.865,0.004-0.89,0.422c-0.024,0.439,0.49,0.446,0.826,0.47c0.379,0.028,0.945,0.045,0.968-0.397
		C102.192,10.055,101.613,10.116,101.263,10.031 M82.789,9.186c-0.006-0.347-0.165-0.482-0.454-0.326
		c-0.473,0.254-0.772,0.663-0.835,1.201c-0.037,0.313,0.142,0.456,0.442,0.298C82.422,10.106,82.686,9.688,82.789,9.186
		 M94.012,38.341c-0.021-0.196-0.193-0.277-0.42-0.201c-0.508,0.176-0.86,0.526-1.032,1.038c-0.083,0.247,0.02,0.396,0.293,0.393
		C93.271,39.564,94.012,38.824,94.012,38.341"/>
	<path fill="#848484" d="M35.805,24.597c0,2.681-0.008,5.363,0.009,8.044c0.003,0.385-0.095,0.495-0.479,0.479
		c-0.717-0.033-1.437-0.035-2.151,0c-0.432,0.021-0.578-0.073-0.571-0.548c0.031-2.065,0.003-4.133,0.023-6.198
		c0.004-0.39-0.104-0.481-0.483-0.479c-1.912,0.021-3.825,0.022-5.738,0c-0.416-0.005-0.55,0.092-0.545,0.53
		c0.025,2.049-0.006,4.099,0.025,6.147c0.007,0.475-0.138,0.567-0.571,0.547c-0.749-0.035-1.502-0.022-2.253-0.004
		c-0.295,0.008-0.374-0.091-0.374-0.379c0.007-5.447,0.008-10.896-0.001-16.344c-0.001-0.318,0.099-0.407,0.409-0.399
		c0.785,0.02,1.571,0.023,2.356-0.001c0.34-0.011,0.431,0.094,0.428,0.43c-0.016,1.964,0.004,3.928-0.018,5.892
		c-0.004,0.407,0.073,0.557,0.521,0.55c1.929-0.026,3.859-0.021,5.789-0.003c0.358,0.003,0.456-0.091,0.453-0.452
		c-0.019-1.962,0.006-3.928-0.02-5.891c-0.006-0.438,0.124-0.547,0.543-0.527c0.733,0.034,1.47,0.029,2.202,0.001
		c0.366-0.015,0.454,0.106,0.452,0.46C35.799,19.166,35.805,21.882,35.805,24.597"/>
	<path fill="#848484" d="M54.972,21.714c1.021-0.991,2.157-1.413,3.457-1.423c3.266-0.024,5.979,2.51,6.306,5.868
		c0.486,5-4.573,8.184-8.514,6.837c-2.465-0.843-3.777-2.693-4.221-5.204c-0.08-0.451-0.099-0.917-0.1-1.376
		c-0.008-3.297,0.003-6.594-0.014-9.891c-0.003-0.422,0.103-0.56,0.532-0.535c0.683,0.037,1.367,0.031,2.05,0.001
		c0.377-0.017,0.498,0.081,0.492,0.476c-0.023,1.622-0.01,3.245-0.01,4.868C54.951,21.418,54.96,21.5,54.972,21.714 M54.954,26.514
		c-0.012,1.891,0.988,3.319,2.492,3.826c1.39,0.47,2.735,0.034,3.666-1.188c1.299-1.705,0.958-4.189-0.765-5.464
		c-1.069-0.789-2.221-0.815-3.372-0.223C55.643,24.15,55.01,25.296,54.954,26.514"/>
	<path fill="#848484" d="M81.689,31.831c0,1.742-0.02,3.394,0.011,5.045c0.009,0.493-0.078,0.699-0.629,0.651
		c-0.678-0.058-1.365-0.025-2.048-0.008c-0.276,0.007-0.385-0.053-0.384-0.359c0.011-3.57-0.041-7.141,0.021-10.709
		c0.059-3.253,2.456-5.859,5.572-6.21c3.364-0.38,6.578,2.062,7.199,5.468c0.593,3.251-1.549,6.551-4.789,7.332
		C85.159,33.398,83.446,33.38,81.689,31.831 M88.629,26.707c-0.008-1.999-1.541-3.711-3.33-3.716
		c-1.994-0.008-3.617,1.672-3.609,3.732c0.009,2.071,1.62,3.722,3.625,3.714C87.099,30.431,88.636,28.701,88.629,26.707"/>
	<path fill="#848484" d="M74.623,20.521c-0.602-0.557-1.225-1.025-1.976-1.3c-0.513-0.188-1.034-0.222-1.56-0.104
		c-0.854,0.193-1.351,0.747-1.443,1.581c-0.096,0.868,0.198,1.354,1.074,1.763c0.728,0.34,1.517,0.51,2.266,0.793
		c0.43,0.162,0.862,0.325,1.274,0.527c1.877,0.922,2.592,2.54,2.594,4.522c0.001,1.831-0.797,3.255-2.399,4.181
		c-2.346,1.355-5.417,1.024-7.495-0.79c-1.014-0.886-1.014-0.886-0.08-1.84c0.299-0.306,0.616-0.596,0.89-0.922
		c0.306-0.367,0.513-0.463,0.861-0.001c0.744,0.979,1.765,1.417,3.005,1.31c1.113-0.096,1.969-1.034,1.895-2.083
		c-0.05-0.707-0.481-1.143-1.049-1.477c-0.726-0.429-1.542-0.638-2.318-0.942c-0.428-0.168-0.86-0.327-1.274-0.525
		c-1.502-0.718-2.407-1.878-2.538-3.565c-0.147-1.917,0.395-3.554,2.057-4.669c2.365-1.586,5.9-1.173,7.862,0.882
		c0.239,0.25,0.306,0.423,0.036,0.713C75.725,19.199,75.188,19.862,74.623,20.521"/>
	<path fill="#848484" d="M49.465,24.368c0,1.314,0.101,2.639-0.02,3.942c-0.277,2.982-2.854,5.213-5.738,5.083
		c-3.063-0.138-5.417-2.483-5.479-5.537c-0.048-2.391-0.004-4.783-0.017-7.175c-0.002-0.315,0.087-0.408,0.404-0.396
		c0.716,0.023,1.435,0.026,2.15-0.001c0.363-0.015,0.458,0.099,0.456,0.456c-0.016,2.306-0.017,4.612-0.005,6.918
		c0.008,1.473,0.943,2.537,2.337,2.709c1.569,0.193,2.941-1.022,2.941-2.609c0-2.323,0.008-4.647-0.014-6.97
		c-0.004-0.407,0.108-0.526,0.512-0.505c0.665,0.033,1.334,0.032,1.998,0c0.394-0.02,0.528,0.082,0.519,0.499
		c-0.029,1.194-0.011,2.391-0.011,3.586C49.489,24.368,49.477,24.368,49.465,24.368"/>
	<path fill="#848484" d="M114.006,17.198c0,1.056,0.021,2.039-0.01,3.022c-0.013,0.399,0.12,0.49,0.492,0.473
		c0.646-0.029,1.297,0.001,1.946-0.013c0.257-0.005,0.363,0.063,0.355,0.342c-0.018,0.648-0.017,1.297,0,1.944
		c0.008,0.274-0.091,0.355-0.352,0.351c-0.666-0.013-1.333,0.018-1.997-0.013c-0.381-0.018-0.445,0.134-0.442,0.473
		c0.017,1.57-0.001,3.141,0.01,4.711c0.01,1.353,0.542,1.918,1.901,2.025c0.372,0.028,0.752,0.025,1.124-0.011
		c0.3-0.028,0.304,0.065,0.233,0.308c-0.204,0.703-0.396,1.41-0.575,2.12c-0.057,0.221-0.177,0.303-0.388,0.325
		c-1.086,0.118-2.15,0.051-3.158-0.403c-1.447-0.652-2.149-1.846-2.17-3.373c-0.049-3.533-0.021-7.067-0.023-10.6
		c0-0.151-0.027-0.307,0.16-0.39C112.059,18.071,113.002,17.647,114.006,17.198"/>
	<path fill="#848484" d="M101.262,10.032c0.352,0.085,0.931,0.022,0.905,0.493c-0.022,0.441-0.589,0.427-0.968,0.398
		c-0.336-0.025-0.852-0.032-0.826-0.47C100.397,10.036,100.905,10.092,101.262,10.032"/>
	<path fill="#848484" d="M82.79,9.186c-0.104,0.501-0.367,0.92-0.848,1.172c-0.301,0.158-0.479,0.017-0.442-0.298
		c0.063-0.537,0.362-0.946,0.836-1.201C82.625,8.703,82.783,8.839,82.79,9.186"/>
	<path fill="#848484" d="M94.012,38.341c0,0.483-0.74,1.224-1.159,1.229c-0.273,0.004-0.376-0.146-0.293-0.393
		c0.172-0.512,0.524-0.862,1.032-1.038C93.818,38.063,93.99,38.145,94.012,38.341"/>
</g>
</svg>
