<?xml version="1.0" encoding="utf-8"?>
<!-- Generator: Adobe Illustrator 16.0.0, SVG Export Plug-In . SVG Version: 6.00 Build 0)  -->
<!DOCTYPE svg PUBLIC "-//W3C//DTD SVG 1.1//EN" "http://www.w3.org/Graphics/SVG/1.1/DTD/svg11.dtd">
<svg version="1.1" id="Layer_1" xmlns="http://www.w3.org/2000/svg" xmlns:xlink="http://www.w3.org/1999/xlink" x="0px" y="0px"
	 width="140px" height="50px" viewBox="0 0 140 50" enable-background="new 0 0 140 50" xml:space="preserve">
<g>
	<path fill="#007B63" d="M70,46.89c-7.18,0-14.36-0.002-21.54,0.009c-0.3,0.001-0.359-0.059-0.359-0.358
		c0.011-14.36,0.011-28.72,0.001-43.08c-0.001-0.3,0.059-0.358,0.358-0.358c14.36,0.01,28.72,0.01,43.08,0
		c0.299,0,0.359,0.059,0.358,0.358c-0.01,14.36-0.01,28.72,0,43.08c0.001,0.299-0.059,0.359-0.358,0.358
		C84.361,46.888,77.18,46.89,70,46.89"/>
	<path fill="#F7FCFD" d="M76.392,36.741c0.877-0.339,1.096-1.093,1.121-1.905c0.092-2.888,0.075-5.776,0.024-8.665
		c-0.01-0.557-0.139-0.669-0.696-0.758c-0.229-0.036-0.464-0.05-0.696-0.05c-4.026-0.003-8.055-0.003-12.083,0
		c-1.271,0.001-1.415,0.138-1.402,1.398c0.024,2.61-0.091,5.224,0.075,7.833c0.045,0.708,0.104,1.441,0.722,1.943
		c0.454,0.369,1.03,0.363,1.569,0.461c0.285,0.052,0.578,0.086,0.868,0.085c0.365,0,0.406,0.229,0.382,0.492
		c-0.025,0.274-0.045,0.563-0.463,0.541c-0.888-0.045-1.777-0.064-2.667-0.09c-2.057-0.058-4.113-0.028-6.168,0.091
		c-0.336,0.021-0.509-0.097-0.53-0.412c-0.021-0.285-0.063-0.581,0.379-0.643c0.443-0.061,0.886-0.155,1.319-0.285
		c0.696-0.207,1.055-0.674,1.176-1.368c0.134-0.765,0.155-1.538,0.156-2.31c0.009-5.239,0.013-10.477-0.004-15.716
		c-0.003-0.915-0.01-1.837-0.22-2.738c-0.223-0.955-0.662-1.355-1.636-1.476c-0.361-0.044-0.727-0.079-1.09-0.084
		c-0.329-0.004-0.517-0.151-0.487-0.466c0.025-0.286,0.025-0.599,0.509-0.578c1.676,0.067,3.354,0.116,5.029,0.122
		c1.239,0.004,2.479-0.049,3.715-0.12c0.434-0.024,0.531,0.189,0.565,0.524c0.038,0.375-0.15,0.505-0.514,0.525
		c-0.492,0.029-0.988,0.08-1.469,0.184c-0.575,0.124-0.83,0.588-0.982,1.108c-0.214,0.736-0.225,1.499-0.231,2.255
		c-0.019,1.999-0.009,3.998-0.006,5.997c0.002,0.929,0.194,1.133,1.128,1.135c4.202,0.007,8.404,0.004,12.607,0.003
		c0.159-0.001,0.318-0.029,0.479-0.043c0.449-0.041,0.677-0.271,0.677-0.738c-0.002-2.042,0.012-4.084,0.003-6.127
		c-0.003-0.641-0.001-1.281-0.093-1.921c-0.161-1.125-0.644-1.631-1.758-1.769c-0.305-0.038-0.608-0.081-0.913-0.088
		c-0.344-0.006-0.478-0.181-0.45-0.493c0.026-0.295,0.05-0.569,0.493-0.55c1.412,0.062,2.826,0.11,4.24,0.121
		c1.473,0.01,2.946-0.011,4.416-0.124c0.444-0.034,0.513,0.201,0.539,0.542c0.027,0.362-0.145,0.488-0.488,0.504
		c-0.744,0.034-1.483,0.111-2.132,0.536c-0.237,0.089-0.303,0.334-0.45,0.503c-0.047,0.063-0.018,0.136-0.023,0.206
		c-0.052,0.142-0.005,0.296-0.059,0.436l0.003-0.004c-0.179,0.159-0.068,0.375-0.109,0.561c-0.056,0.244,0.055,0.563-0.293,0.684
		c-0.233-0.073-0.233-0.272-0.244-0.463c-0.028-0.567,0.014-1.135-0.065-1.703c-0.047-0.341,0.111-0.532,0.516-0.782
		c-0.006-0.082-0.076-0.091-0.127-0.084c-0.978,0.142-1.95-0.08-2.924-0.052c-0.557,0.016-1.038-0.241-1.55-0.377
		c-0.227-0.061-0.439-0.15-0.684-0.098c0.559-0.119,0.921,0.369,1.421,0.437c0.099,0.013,0.189,0.059,0.297,0.055
		c0.523-0.015,0.578,0.037,0.588,0.547c0.004,0.281,0.038,0.548,0.226,0.779c0.113,0.141,0.135,0.319,0.142,0.498
		c0.024,0.642,0.086,1.278,0.166,1.914c0.052,0.397-0.074,0.782-0.071,1.177c0.009,1.357,0.003,2.715,0.003,4.071
		c0,0.278,0.008,0.553,0.112,0.819c0.091,0.233,0.046,0.477-0.076,0.675c-0.212,0.345-0.49,0.643-0.694,1
		c-0.127,0.22-0.446,0.203-0.58,0.036c-0.326-0.403-0.769-0.412-1.191-0.415c-2.569-0.019-5.139-0.053-7.705,0.012
		c-1.107,0.027-2.213-0.115-3.318,0.021c-0.087,0.012-0.174,0.018-0.213,0.027c0.28-0.024,0.604-0.071,0.934-0.07
		c3.369,0.013,6.737-0.004,10.106-0.001c0.294,0,0.581,0.043,0.868,0.094c0.136,0.023,0.262,0.078,0.279,0.231
		c0.022,0.183-0.115,0.245-0.259,0.301c-0.167,0.063-0.336,0.082-0.514,0.081c-1.693-0.009-3.386,0.01-5.078-0.008
		c-1.79-0.018-3.58,0.086-4.692-0.002c2.851,0.08,6.378-0.056,9.904,0.028c0.186,0.005,0.345-0.065,0.505-0.127
		c0.64-0.247,0.87-0.103,1.153,0.493c0.18,0.376,0.468,0.703,0.441,1.146c-0.031,0.541,0.023,1.078,0.021,1.617
		c-0.008,1.635-0.012,3.269,0.001,4.903c0.007,0.769,0.187,1.572-0.124,2.286c-0.249,0.571-0.263,1.181-0.485,1.739
		c-0.105,0.266-0.031,0.396,0.245,0.403c0.919,0.025,1.839,0.015,2.758,0.007c0.243-0.003,0.289-0.115,0.251-0.337
		c-0.03-0.183-0.071-0.365-0.236-0.444c-0.459-0.221-0.491-0.569-0.342-0.989c0.08-0.23,0.089-0.456-0.015-0.682
		c-0.096-0.208-0.087-0.428-0.063-0.646c0.021-0.206,0.104-0.369,0.359-0.335c0.197,0.108,0.196,0.296,0.212,0.489
		c0.041,0.532,0.007,1.07,0.214,1.587c0.216,0.531,0.594,0.833,1.128,0.991c0.514,0.153,1.045,0.203,1.567,0.301
		c0.237,0.045,0.395,0.121,0.364,0.382c-0.028,0.232-0.06,0.472-0.379,0.498c-0.309,0.024-0.608-0.047-0.914-0.044
		c-1.675,0.007-3.351,0.026-5.024-0.012c-0.557-0.012-1.127,0.134-1.676-0.068c-0.143-0.104-0.157-0.252-0.079-0.383
		c0.093-0.154,0.004-0.313,0.054-0.462C76.101,36.941,76.237,36.829,76.392,36.741"/>
	<path fill="#E4F9F7" d="M76.392,36.741c-0.079,0.153-0.105,0.359-0.35,0.344c-0.025,0.032-0.054,0.062-0.086,0.088
		c-0.323,0.061-0.655,0.088-0.955,0.246c-0.09,0.047-0.207,0.07-0.183,0.2c0.023,0.122,0.146,0.112,0.24,0.145
		c0.279,0.096,0.53-0.121,0.804-0.064c0.035,0.023,0.065,0.052,0.092,0.084c0.347,0.202,0.705,0.254,1.076,0.071
		c0.204-0.101,0.343,0.1,0.536,0.099c1.951-0.008,3.902-0.003,5.854,0.008c0.3,0.001,0.409-0.136,0.43-0.418
		c0.027-0.354-0.234-0.233-0.408-0.29c-0.57-0.191-1.187-0.188-1.744-0.448c-0.694-0.323-0.926-0.918-1.012-1.604
		c-0.056-0.453,0.103-0.933-0.179-1.356c-0.216-0.168-0.194-0.412-0.197-0.644c-0.01-0.889-0.004-1.778-0.004-2.669
		c0-4.564-0.003-9.13,0.006-13.694c0-0.292-0.1-0.624,0.195-0.855c0.16-0.24,0.187-0.508,0.179-0.79
		c-0.005-0.162-0.057-0.365,0.19-0.424c-0.123,1.104-0.11,2.212-0.11,3.321c0.002,5.164,0,10.329,0.003,15.494
		c0,0.61,0.024,1.223,0.153,1.823c0.209,0.972,0.597,1.345,1.559,1.499c0.403,0.065,0.807,0.152,1.213,0.166
		c0.38,0.014,0.481,0.19,0.453,0.522c-0.029,0.347-0.131,0.553-0.564,0.521c-1.717-0.125-3.439-0.118-5.159-0.101
		c-1.196,0.011-2.392,0.045-3.585,0.104c-0.371,0.019-0.476-0.161-0.492-0.448c-0.015-0.272-0.038-0.548,0.379-0.602
		C75.286,36.994,75.837,36.854,76.392,36.741"/>
	<path fill="#E4F9F7" d="M80.858,14.055c0.206-0.112,0.246-0.438,0.548-0.429c-0.285,0.332-0.407,0.739-0.531,1.146
		c-0.007-0.182-0.013-0.361-0.019-0.542C80.804,14.171,80.804,14.113,80.858,14.055"/>
	<path fill="#FEFEFE" d="M80.508,15.981c0,5.954,0,11.907-0.001,17.861c-0.316,0.222-0.21,0.542-0.108,0.785
		c0.146,0.352,0.153,0.653,0.008,1.002c-0.096,0.232-0.241,0.543,0.275,0.564c0.183,0.007,0.398,0.367,0.363,0.486
		c-0.13,0.435,0.066,0.539,0.467,0.573c-1.536,0.243-3.024,0.229-4.59,0.074c0.457-0.463,0.657-0.932,0.61-1.495
		c-0.007-0.086-0.022-0.206,0.023-0.256c0.601-0.654,0.429-1.463,0.434-2.222c0.013-1.954,0.006-3.909-0.033-5.863
		c-0.011-0.546,0.051-1.099-0.068-1.642c-0.028-0.13-0.021-0.263-0.177-0.321c-0.258-0.097-0.344-0.242-0.245-0.54
		c0.085-0.26-0.345-0.509-0.632-0.291c-0.462,0.35-0.932,0.217-1.412,0.216c-2.393-0.004-4.785,0-7.178-0.004
		c-0.424-0.001-0.837,0.151-1.262,0.087c-0.726-0.108-1.453-0.214-2.281-0.194c0.327-0.239,0.327-0.24,0.745-0.24
		c3.399,0,6.798-0.001,10.197,0.001c0.317,0,0.629-0.022,1.005-0.183c-0.429-0.121-0.765-0.261-1.147-0.26
		c-2.406,0.006-4.814-0.027-7.221,0.021c-0.843,0.016-1.68,0.077-2.523-0.011c-0.595-0.061-1.187,0.141-1.786,0.08
		c-0.124-0.013-0.272,0.038-0.353-0.105c-0.013-0.022,0.015-0.092,0.041-0.107c0.107-0.063,0.232-0.068,0.335-0.007
		c0.364,0.213,0.698-0.061,1.056-0.057c2.771,0.027,5.544,0.016,8.315,0.016c0.875,0,1.751,0.016,2.625-0.008
		c0.406-0.012,0.743,0.081,1.022,0.377c0.208,0.22,0.366,0.167,0.425-0.115c0.055-0.261,0.206-0.435,0.393-0.607
		c0.267-0.245,0.391-0.544,0.213-0.902c-0.08-0.163-0.074-0.339-0.074-0.515c0-1.502-0.068-3.01,0.023-4.506
		c0.061-0.984-0.144-1.938-0.115-2.91c0.006-0.15-0.028-0.296-0.142-0.401c-0.279-0.261-0.243-0.602-0.241-0.931
		c0.001-0.126,0.087-0.278-0.046-0.362c-0.146-0.091-0.182,0.086-0.261,0.157c-0.038,0.035-0.132,0.077-0.14,0.065
		c-0.221-0.271-0.63-0.17-0.832-0.375c-0.287-0.288-0.584-0.289-0.921-0.228c-0.193,0.035-0.413,0.1-0.45-0.172
		c-0.04-0.303,0.211-0.289,0.418-0.3c0.652-0.034,1.227,0.247,1.817,0.459c0.108,0.039,0.225,0.138,0.318,0.118
		c1.057-0.215,2.12,0.212,3.177-0.045c0.259-0.063,0.455,0.06,0.521,0.339c0.024,0.104,0.018,0.209-0.048,0.293
		c-0.114,0.146-0.165-0.021-0.243-0.058c-0.25-0.117-0.339,0.04-0.41,0.239c-0.12,0.335,0.038,0.66,0.036,0.993
		C80.429,15.03,80.325,15.516,80.508,15.981"/>
	<path fill="#FEFEFE" d="M60.922,37.041c0.801,0.133,1.639-0.064,2.428,0.21c-1.507,0.172-3.012,0.415-4.519-0.182
		c0.639-0.451,0.604-1.355,1.247-1.813c-0.028-0.484,0.432-0.76,0.522-1.16c0.101-0.444,0.069-0.935,0.011-1.394
		c-0.116-0.897-0.126-1.804-0.136-2.699c-0.045-3.925-0.021-7.849-0.018-11.773c0-0.202,0.02-0.407,0.051-0.606
		c0.023-0.155,0.015-0.338-0.083-0.415c-0.574-0.452-0.364-1.155-0.565-1.724c-0.146-0.415-0.142-0.87-0.442-1.25
		c-0.2-0.253-0.141-0.614-0.12-0.928c0.019-0.287-0.025-0.435-0.35-0.344c-0.101,0.027-0.24,0.041-0.249-0.089
		c-0.013-0.183,0.163-0.132,0.261-0.128c0.641,0.02,1.278-0.036,1.922,0.059c0.469,0.068,0.958,0.07,1.436-0.042
		c0.151-0.035,0.353-0.082,0.443,0.076c0.098,0.172,0.118,0.388,0.089,0.592c-0.01,0.075-0.067,0.114-0.156,0.117
		c-0.328,0.01-0.323,0.011-0.189,0.354c0.043,0.111,0.125,0.306-0.119,0.253c-0.322-0.067-0.256,0.125-0.179,0.259
		c0.149,0.26,0.155,0.521,0.089,0.795c-0.088,0.365,0.201,0.675,0.168,1.019c-0.185,1.874,0.023,3.757-0.153,5.631
		c-0.06,0.622-0.109,1.245-0.176,1.866c-0.025,0.225-0.099,0.633,0.384,0.296c0.205-0.145,0.355,0.135,0.561,0.124
		c-0.04,0.182-0.185,0.162-0.28,0.209c-0.265,0.128-0.439,0.227-0.112,0.518c0.271,0.241,0.039,0.454-0.176,0.587
		c-0.293,0.184-0.432,0.423-0.389,0.766c0.004,0.029-0.006,0.066,0.008,0.086c0.525,0.697,0.079,1.496,0.229,2.243
		c0.122,0.617,0.003,1.279,0.029,1.92c0.051,1.243-0.192,2.463-0.248,3.696c-0.02,0.423-0.153,0.878,0.18,1.259
		c0.049,0.057,0.054,0.141,0.005,0.205c-0.16,0.208-0.032,0.201,0.14,0.294c0.256,0.139,0.313,0.478,0.396,0.743
		c0.051,0.157-0.152,0.147-0.234,0.052c-0.168-0.198-0.28-0.117-0.424,0.027c-0.141,0.146-0.336,0.16-0.53,0.158
		c-0.244-0.003-0.489-0.001-0.734-0.001C60.931,36.952,60.927,36.996,60.922,37.041"/>
	<path fill="#FEFEFE" d="M60.145,33.04c-0.184-0.048-0.075-0.256-0.248-0.326c-0.052,0.177-0.106,0.358-0.159,0.541
		c-0.021-0.001-0.044-0.001-0.065-0.002c0-0.565,0.003-1.13,0-1.695c-0.002-0.246,0.216-0.375,0.354-0.458
		c0.206-0.122,0.23,0.15,0.238,0.275C60.299,31.933,60.317,32.491,60.145,33.04"/>
	<path fill="#FEFEFE" d="M81.322,12.946c0.167-0.26,0.351-0.208,0.494-0.24c0.327-0.073,0.65-0.14,0.907-0.378
		c0.091-0.084,0.197-0.128,0.313-0.044c0.087,0.063,0.137,0.153,0.122,0.262c-0.019,0.137-0.099,0.303-0.22,0.289
		C82.419,12.773,81.915,12.929,81.322,12.946"/>
	<path fill="#FEFEFE" d="M63.333,12.771c0.448,0.012,0.776-0.281,1.172-0.402c0.189-0.059,0.373-0.07,0.438,0.14
		c0.066,0.22-0.147,0.274-0.292,0.292c-0.428,0.051-0.857,0.07-1.287,0.102C63.352,12.858,63.342,12.815,63.333,12.771"/>
	<path fill="#FEFEFE" d="M57.284,12.565c-0.16,0-0.32,0.005-0.48-0.002c-0.098-0.006-0.227,0.009-0.222-0.143
		c0.005-0.119,0.096-0.188,0.205-0.189c0.335-0.007,0.67-0.009,1.004,0.008c0.116,0.005,0.243,0.081,0.227,0.218
		c-0.017,0.133-0.155,0.104-0.252,0.107C57.605,12.57,57.444,12.565,57.284,12.565"/>
	<path fill="#FEFEFE" d="M75.956,37.085c0.028,0,0.058-0.001,0.087-0.001c0.209,0.263,0.117,0.488-0.089,0.699
		c-0.028,0-0.058,0-0.087,0c-0.102-0.088-0.219-0.011-0.327-0.025c-0.135-0.017-0.27-0.028-0.296-0.185
		c-0.023-0.147,0.089-0.233,0.203-0.295C75.607,37.191,75.821,37.244,75.956,37.085"/>
	<path fill="#FEFEFE" d="M58.824,37.788c-0.123-0.03-0.311,0.05-0.305-0.146c0.005-0.143,0.154-0.201,0.294-0.191
		c0.13,0.01,0.288,0.042,0.278,0.204C59.083,37.812,58.917,37.761,58.824,37.788"/>
	<path fill="#FEFEFE" d="M63.828,37.46c0.224-0.155,0.388-0.206,0.6,0.002C64.22,37.546,64.055,37.542,63.828,37.46"/>
	<path fill="#FEFEFE" d="M80.858,14.055c0,0.059-0.001,0.117-0.002,0.176c-0.109,0.046-0.221,0.097-0.301-0.044
		c-0.031-0.056-0.032-0.116,0.02-0.158C80.675,13.947,80.766,14.022,80.858,14.055"/>
	<path fill="#FEFEFE" d="M82.501,37.585c-0.057,0.079-0.141,0.099-0.228,0.1c-0.062,0-0.121-0.029-0.089-0.102
		c0.037-0.087,0.114-0.129,0.212-0.106C82.452,37.489,82.505,37.512,82.501,37.585"/>
	<path fill="#F7FCFD" d="M75.956,37.085c-0.048,0.338-0.44,0.243-0.59,0.469c0.17,0.078,0.335,0.154,0.501,0.229
		c-0.302,0.104-0.6,0.209-0.932,0.178c-0.216-0.021-0.364-0.078-0.378-0.324c-0.014-0.216,0.051-0.324,0.286-0.399
		C75.211,37.119,75.574,37.064,75.956,37.085"/>
</g>
</svg>
