<svg xmlns="http://www.w3.org/2000/svg" width="128.004" height="85.28" viewBox="0 0 128.004 85.28"><defs><style>.a{fill:#f26145;}.b,.c,.d{fill:none;stroke:#000;stroke-width:1.5px;}.c{stroke-linecap:round;}.d{stroke-miterlimit:10;}</style></defs><g transform="translate(-2843.837 -1794.893)"><g transform="translate(1839.829 1470.721)"><rect class="a" width="31" height="31" rx="6" transform="matrix(0.875, 0.485, -0.485, 0.875, 1072.129, 324.173)"/><circle class="a" cx="9.083" cy="9.083" r="9.083" transform="translate(1113.846 379.638)"/><circle class="a" cx="1.148" cy="1.148" r="1.148" transform="translate(1027.887 352.304)"/><circle class="a" cx="2.184" cy="2.184" r="2.184" transform="translate(1022.583 345.419)"/><circle class="a" cx="3.094" cy="3.094" r="3.094" transform="translate(1028.312 333.235)"/><path class="b" d="M1062.247,391.545c11.212-1.215,23.341-6.3,34.557-18.769l10.633,7.847-4.642-11.9,5.148-13.666-10.506,9.24s-12.132-16.928-31.969-21.68" transform="translate(15.119 7.941)"/><path class="b" d="M1063.119,341.651c-10.07.182-21.538,3.854-34.005,13.659l12.911,13.666-12.658,11.9s13.855,9.79,32.068,11.084" transform="translate(6.358 7.686)"/><path class="c" d="M1055.567,346.3s.822-10.727,14.1-13.711c0,0-5.107,10.12-1.84,14.993" transform="translate(13.352 5.289)"/><path class="c" d="M1053.406,377.1a14.226,14.226,0,0,0,1.749,5.72c1.706,3.162,5.072,6.809,11.71,8.625a30.723,30.723,0,0,1-2.44-9.749,8.412,8.412,0,0,1,1.291-5.314" transform="translate(12.781 16.869)"/><path class="b" d="M1063.77,381.356a11.341,11.341,0,0,0,7.767,4.948,19.434,19.434,0,0,1-1.958-6.054" transform="translate(15.522 17.892)"/><path class="b" d="M1042.422,353.875a3.385,3.385,0,1,1,6.705.937" transform="translate(9.877 10.147)"/><g transform="translate(1005.069 366.83)"><g transform="translate(7.797 0)"><path class="d" d="M0,0H1.454a5.5,5.5,0,0,1,5.5,5.5V6.954a0,0,0,0,1,0,0H5.5A5.5,5.5,0,0,1,0,1.454V0A0,0,0,0,1,0,0Z" transform="translate(0 4.917) rotate(-45)"/><path class="d" d="M1020.811,361.551l-1.8-1.8,1.8-1.8-.594,1.809Z" transform="translate(-1009.18 -354.834)"/></g><g transform="translate(0 7.903)"><path class="d" d="M0,0H1.454a5.5,5.5,0,0,1,5.5,5.5V6.954a0,0,0,0,1,0,0H5.5A5.5,5.5,0,0,1,0,1.454V0A0,0,0,0,1,0,0Z" transform="translate(0 4.917) rotate(-45)"/><path class="d" d="M1014.645,367.8l-1.8-1.8,1.8-1.8-.594,1.809Z" transform="translate(-1003.013 -361.084)"/></g></g></g></g></svg>