<?xml version="1.0" encoding="utf-8"?>
<!-- Generator: Adobe Illustrator 16.0.0, SVG Export Plug-In . SVG Version: 6.00 Build 0)  -->
<!DOCTYPE svg PUBLIC "-//W3C//DTD SVG 1.1//EN" "http://www.w3.org/Graphics/SVG/1.1/DTD/svg11.dtd">
<svg version="1.1" id="Layer_1" xmlns="http://www.w3.org/2000/svg" xmlns:xlink="http://www.w3.org/1999/xlink" x="0px" y="0px"
	 width="140px" height="50px" viewBox="0 0 140 50" enable-background="new 0 0 140 50" xml:space="preserve">
<g>
	<path fill="#0094DC" d="M113.081,28.528c-3.481,0.022-6.963,0.012-10.444,0.012c-0.194,0-0.39,0-0.734,0
		c4.469-4.636,8.815-9.146,13.187-13.682c-0.265-0.138-0.473-0.084-0.671-0.084c-9.195-0.004-18.391,0.002-27.586-0.017
		c-0.573-0.001-0.764,0.132-0.714,0.716c0.055,0.656,0.012,1.32,0.012,2.107c-3.655-4.642-8.359-6.733-14.022-6.518
		c-5.665,0.216-10.185,2.662-13.393,7.638c0-1.255-0.015-2.333,0.007-3.409c0.01-0.419-0.067-0.587-0.556-0.579
		c-2.591,0.031-5.183,0.029-7.775,0.008c-0.407-0.003-0.649,0.108-0.886,0.44c-2.386,3.362-4.788,6.713-7.186,10.067
		c-0.406,0.567-0.402,0.564-0.879,0.008c-2.919-3.402-5.84-6.803-8.759-10.206c-0.149-0.174-0.291-0.315-0.562-0.313
		c-2.233,0.015-4.465,0.021-6.698,0.011c-0.376-0.002-0.479,0.122-0.479,0.489c-0.001,6.509-0.012,13.017-0.032,19.525
		c-0.001,0.377,0.11,0.473,0.477,0.47c2.005-0.017,4.012-0.022,6.017,0.003c0.452,0.005,0.567-0.123,0.568-0.566
		c0.008-2.895,0.041-5.789,0.073-8.684c0.001-0.149-0.088-0.337,0.111-0.471c0.129,0.146,0.254,0.284,0.377,0.426
		c2.795,3.209,5.588,6.421,8.384,9.629c0.604,0.693,1.982,0.658,2.55-0.05c2.544-3.172,5.089-6.344,7.639-9.512
		c0.133-0.165,0.235-0.376,0.496-0.483c0.011,0.175,0.024,0.303,0.025,0.431c0.026,2.912,0.058,5.826,0.064,8.739
		c0.001,0.421,0.107,0.545,0.538,0.54c2.005-0.022,4.011-0.019,6.016-0.002c0.37,0.003,0.499-0.094,0.486-0.474
		c-0.027-0.774-0.009-1.551-0.01-2.327c0-0.32,0-0.64,0-0.96c0.65,0.85,1.228,1.665,1.916,2.396
		c2.822,2.993,6.315,4.646,10.383,5.017c5.299,0.483,9.987-0.97,13.729-4.849c3.131-3.247,4.34-7.15,3.431-11.629
		c-0.088-0.435,0.059-0.506,0.448-0.504c2.536,0.015,5.071,0.008,7.606,0.008c0.349,0,0.697,0,1.179,0
		c-4.434,4.476-8.772,8.855-13.159,13.284c0.158,0.031,0.21,0.052,0.262,0.052c9.573,0.001,19.147-0.001,28.722,0.009
		c0.398,0,0.462-0.157,0.46-0.503c-0.015-1.854-0.024-3.709,0.005-5.563C113.71,28.678,113.596,28.524,113.081,28.528
		 M77.457,29.495c-2.633,2.15-6.716,2.153-9.35,0.006c-3.342-2.724-2.861-7.608,0.956-9.727c1.164-0.646,2.408-0.973,3.745-0.947
		c1.951,0.016,3.682,0.62,5.083,2.003C80.465,23.368,80.261,27.205,77.457,29.495"/>
</g>
</svg>
