<svg xmlns="http://www.w3.org/2000/svg" width="77.25" height="77.901" viewBox="0 0 77.25 77.901"><defs><style>.a{fill:#f26145;}.b,.d{fill:none;}.b,.c,.d{stroke:#000;stroke-width:1.5px;}.c{fill:#fff;}.d{stroke-linecap:round;}</style></defs><g transform="translate(-2877 -1468.466)"><g transform="translate(1804.25 1421.466)"><circle class="a" cx="6.74" cy="6.74" r="6.74" transform="translate(1072.75 111.422)"/><circle class="a" cx="3.811" cy="3.811" r="3.811" transform="translate(1085.3 47)"/><g transform="translate(1076.375 57.415)"><path class="a" d="M1146.5,94.177V74a2.74,2.74,0,0,0-2.47-2.946h-38.507a2.74,2.74,0,0,0-2.47,2.946V94.438l18.964,13.418a4.124,4.124,0,0,0,5.176.028Z" transform="translate(-1072.875 -54.636)"/><path class="b" d="M1140,80.725l-27.474-22.794a6.924,6.924,0,0,0-8.82-.017L1076,80.725v31.469a6.975,6.975,0,0,0,6.975,6.975h50.052a6.975,6.975,0,0,0,6.975-6.975Z" transform="translate(-1076 -56.336)"/><path class="c" d="M1131.017,85.094V64.916a2.834,2.834,0,0,0-2.708-2.946h-42.215a2.835,2.835,0,0,0-2.708,2.946V85.354l20.79,13.418a4.864,4.864,0,0,0,5.676.028Z" transform="translate(-1075.147 -55.686)"/><path class="d" d="M1139.746,78.164l-28.3,18.486a6.6,6.6,0,0,1-7.213,0l-28.183-18.37" transform="translate(-1075.995 -53.815)"/></g><g transform="translate(1098.268 77.026)"><line class="d" x2="11.783" transform="translate(8.506)"/><line class="d" x2="20.289" transform="translate(0 6.484)"/><line class="d" x2="20.289" transform="translate(0 12.968)"/></g></g></g></svg>