<svg width="826" height="509" viewBox="0 0 826 509" fill="none" xmlns="http://www.w3.org/2000/svg">
<path d="M143.154 47.5711H48.1079C46.8067 47.5676 45.5599 47.0476 44.641 46.1251C43.7221 45.2026 43.2061 43.9528 43.2061 42.6499V42.6499C43.2044 42.0043 43.3299 41.3646 43.5755 40.7676C43.821 40.1707 44.1818 39.6281 44.6372 39.1709C45.0925 38.7138 45.6335 38.3511 46.229 38.1036C46.8246 37.8561 47.4631 37.7288 48.1079 37.7288H143.154C143.798 37.7288 144.437 37.8561 145.032 38.1036C145.628 38.3511 146.169 38.7138 146.624 39.1709C147.08 39.6281 147.44 40.1707 147.686 40.7676C147.932 41.3646 148.057 42.0043 148.055 42.6499V42.6499C148.055 43.9528 147.539 45.2026 146.62 46.1251C145.702 47.0476 144.455 47.5676 143.154 47.5711V47.5711Z" fill="#FAD780"/>
<path d="M821.085 183.215H757.375C756.071 183.215 754.821 182.697 753.899 181.774C752.978 180.851 752.46 179.599 752.46 178.294V178.294C752.46 176.989 752.978 175.737 753.899 174.814C754.821 173.891 756.071 173.373 757.375 173.373H821.085C822.389 173.373 823.639 173.891 824.56 174.814C825.482 175.737 826 176.989 826 178.294V178.294C826 179.599 825.482 180.851 824.56 181.774C823.639 182.697 822.389 183.215 821.085 183.215V183.215Z" fill="#00C77D"/>
<path d="M439.225 0H431.437C429.391 0 427.731 1.6612 427.731 3.71039V11.027C427.731 13.0762 429.391 14.7374 431.437 14.7374H439.225C441.272 14.7374 442.931 13.0762 442.931 11.027V3.71039C442.931 1.6612 441.272 0 439.225 0Z" fill="#00C77D"/>
<path d="M773.095 444.973H765.306C763.26 444.973 761.601 446.634 761.601 448.683V456C761.601 458.049 763.26 459.71 765.306 459.71H773.095C775.141 459.71 776.8 458.049 776.8 456V448.683C776.8 446.634 775.141 444.973 773.095 444.973Z" fill="#FAD780"/>
<path d="M102.431 399.147H94.6426C92.5961 399.147 90.937 400.808 90.937 402.857V410.174C90.937 412.223 92.5961 413.884 94.6426 413.884H102.431C104.477 413.884 106.137 412.223 106.137 410.174V402.857C106.137 400.808 104.477 399.147 102.431 399.147Z" fill="#2286FF"/>
<path d="M175.204 100.714H724.141" stroke="white" stroke-width="1.65" stroke-miterlimit="10"/>
<path d="M716.249 61.0456H183.096C178.737 61.0456 175.204 64.5837 175.204 68.9481V427.515C175.204 431.879 178.737 435.417 183.096 435.417H716.249C720.607 435.417 724.141 431.879 724.141 427.515V68.9481C724.141 64.5837 720.607 61.0456 716.249 61.0456Z" stroke="white" stroke-width="1.65" stroke-miterlimit="10"/>
<path d="M716.249 61.0456H183.096C178.737 61.0456 175.204 64.5837 175.204 68.9481V427.515C175.204 431.879 178.737 435.417 183.096 435.417H716.249C720.607 435.417 724.141 431.879 724.141 427.515V68.9481C724.141 64.5837 720.607 61.0456 716.249 61.0456Z" stroke="white" stroke-width="1.65" stroke-miterlimit="10"/>
<path d="M208.346 86.81C211.398 86.81 213.872 84.3328 213.872 81.277C213.872 78.2212 211.398 75.744 208.346 75.744C205.294 75.744 202.82 78.2212 202.82 81.277C202.82 84.3328 205.294 86.81 208.346 86.81Z" fill="#FE9184"/>
<path d="M229.839 86.81C232.891 86.81 235.365 84.3328 235.365 81.277C235.365 78.2212 232.891 75.744 229.839 75.744C226.787 75.744 224.313 78.2212 224.313 81.277C224.313 84.3328 226.787 86.81 229.839 86.81Z" fill="#FAD780"/>
<path d="M251.318 86.81C254.37 86.81 256.844 84.3328 256.844 81.277C256.844 78.2212 254.37 75.744 251.318 75.744C248.267 75.744 245.792 78.2212 245.792 81.277C245.792 84.3328 248.267 86.81 251.318 86.81Z" fill="#00C77D"/>
<path d="M801.322 262.852H574.097C569.975 262.852 566.633 266.197 566.633 270.324V369.945C566.633 374.072 569.975 377.418 574.097 377.418H801.322C805.444 377.418 808.785 374.072 808.785 369.945V270.324C808.785 266.197 805.444 262.852 801.322 262.852Z" fill="#FAEFEB"/>
<path d="M801.322 262.852H574.097C569.975 262.852 566.633 266.197 566.633 270.324V369.945C566.633 374.072 569.975 377.418 574.097 377.418H801.322C805.444 377.418 808.785 374.072 808.785 369.945V270.324C808.785 266.197 805.444 262.852 801.322 262.852Z" stroke="white" stroke-width="1.65" stroke-miterlimit="10"/>
<path d="M599.841 354.765H669.935C675.781 354.765 680.519 350.02 680.519 344.168V293.537C680.519 287.684 675.781 282.94 669.935 282.94H599.841C593.996 282.94 589.257 287.684 589.257 293.537V344.168C589.257 350.02 593.996 354.765 599.841 354.765Z" fill="#F45555"/>
<path d="M622.737 313.743C622.737 310.889 623.583 308.1 625.166 305.727C626.75 303.355 629 301.506 631.634 300.414C634.267 299.323 637.164 299.038 639.959 299.596C642.754 300.153 645.321 301.528 647.335 303.547C649.349 305.566 650.72 308.137 651.275 310.936C651.829 313.735 651.542 316.636 650.45 319.272C649.357 321.907 647.509 324.159 645.138 325.743C642.767 327.326 639.981 328.17 637.131 328.167C633.313 328.161 629.654 326.638 626.956 323.934C624.258 321.23 622.741 317.565 622.737 313.743ZM626.001 313.743C625.998 315.95 626.65 318.109 627.873 319.946C629.097 321.783 630.837 323.215 632.873 324.061C634.91 324.907 637.152 325.129 639.314 324.699C641.477 324.269 643.464 323.206 645.023 321.645C646.582 320.084 647.644 318.094 648.073 315.929C648.503 313.764 648.281 311.519 647.436 309.48C646.591 307.441 645.161 305.698 643.326 304.473C641.492 303.248 639.336 302.596 637.131 302.598C634.18 302.602 631.351 303.777 629.264 305.866C627.178 307.955 626.004 310.788 626.001 313.743V313.743Z" fill="#FDFDF3"/>
<path d="M626.967 321.631L622.72 325.884L625.027 328.195L629.275 323.942L626.967 321.631Z" fill="#FDFDF3"/>
<path d="M620.527 325.29L612.124 333.704C611.23 334.598 611.23 336.049 612.123 336.944L613.99 338.813C614.884 339.708 616.332 339.708 617.226 338.813L625.629 330.399C626.523 329.504 626.523 328.053 625.629 327.158L623.763 325.29C622.869 324.395 621.42 324.395 620.527 325.29Z" fill="#FDFDF3"/>
<path d="M697.37 304.317H780.947" stroke="white" stroke-width="1.65" stroke-miterlimit="10"/>
<path d="M697.37 318.924H738.118" stroke="white" stroke-width="1.65" stroke-miterlimit="10"/>
<path d="M697.37 333.531H780.947" stroke="white" stroke-width="1.65" stroke-miterlimit="10"/>
<path d="M187.374 183.593H10.649C5.35667 183.593 1.06641 187.888 1.06641 193.187V325.993C1.06641 331.292 5.35667 335.588 10.649 335.588H187.374C192.666 335.588 196.957 331.292 196.957 325.993V193.187C196.957 187.888 192.666 183.593 187.374 183.593Z" fill="#FAEFEB"/>
<path d="M187.374 183.593H10.649C5.35667 183.593 1.06641 187.888 1.06641 193.187V325.993C1.06641 331.292 5.35667 335.588 10.649 335.588H187.374C192.666 335.588 196.957 331.292 196.957 325.993V193.187C196.957 187.888 192.666 183.593 187.374 183.593Z" stroke="white" stroke-width="1.65" stroke-miterlimit="10"/>
<path d="M31.2832 247.034H127.928" stroke="white" stroke-width="1.65" stroke-miterlimit="10"/>
<path d="M31.2832 276.248H127.928" stroke="white" stroke-width="1.65" stroke-miterlimit="10"/>
<path d="M31.2832 261.641H72.0319" stroke="white" stroke-width="1.65" stroke-miterlimit="10"/>
<path d="M287.919 135.995H65.5828C62.5022 135.995 60.0049 138.496 60.0049 141.581V205.295C60.0049 208.38 62.5022 210.88 65.5828 210.88H287.919C291 210.88 293.497 208.38 293.497 205.295V141.581C293.497 138.496 291 135.995 287.919 135.995Z" fill="#F45555"/>
<path d="M153.464 165.574H267.207" stroke="white" stroke-width="1.65" stroke-miterlimit="10"/>
<path d="M153.464 180.182H189.506" stroke="white" stroke-width="1.65" stroke-miterlimit="10"/>
<path fill-rule="evenodd" clip-rule="evenodd" d="M136.522 172.084C120.777 155.381 98.5562 155.381 82.8106 172.084C82.5867 172.308 82.4609 172.613 82.4609 172.93C82.4609 173.247 82.5867 173.552 82.8106 173.776C98.5562 190.414 120.777 190.558 136.522 173.776C136.724 173.54 136.835 173.24 136.835 172.93C136.835 172.62 136.724 172.32 136.522 172.084V172.084ZM99.2973 172.904C99.2973 159.299 120.101 159.299 120.101 172.904C120.101 186.509 99.3233 186.561 99.3233 172.904H99.2973ZM101.456 163.153C100.017 164.34 98.8592 165.831 98.0641 167.519C97.269 169.207 96.8567 171.051 96.8567 172.917C96.8567 174.783 97.269 176.627 98.0641 178.315C98.8592 180.003 100.017 181.494 101.456 182.681C95.4814 180.598 90.0232 177.255 85.45 172.878C90.0306 168.529 95.4882 165.213 101.456 163.153V163.153ZM117.877 182.681C119.301 181.485 120.447 179.991 121.232 178.304C122.018 176.617 122.425 174.778 122.425 172.917C122.425 171.056 122.018 169.217 121.232 167.53C120.447 165.843 119.301 164.349 117.877 163.153C123.806 165.267 129.234 168.587 133.818 172.904C129.266 177.292 123.832 180.656 117.877 182.772V182.681Z" fill="white"/>
<path d="M635 396L687.178 417.768L672.563 425.8L691.793 445.589L678.882 457.918L660.133 436.528L649.627 449.651L635 396Z" fill="#FAEFEB"/>
<path d="M323.298 421.578C323.298 421.578 290.455 465.673 274.852 508.596H417.642C417.642 508.596 429.135 473.094 426.041 421.578H323.298Z" fill="#F45656"/>
<path d="M385.982 476.895L367.844 487.714L353.385 508.596" stroke="#4F3B32" stroke-width="1.09" stroke-miterlimit="10"/>
<path d="M581.95 153.011L605.952 115.569L632.411 136.855C632.411 136.855 628.055 157.294 604.326 167.046L588.594 194.255L581.95 153.011Z" fill="#FE9184"/>
<path d="M601.102 169.35C609.462 156.331 605.952 145.473 605.952 145.473L610.736 138.144C611.234 137.376 611.438 136.454 611.312 135.548C611.185 134.641 610.736 133.811 610.047 133.209C609.392 132.636 608.561 132.307 607.691 132.276C606.822 132.245 605.969 132.515 605.276 133.04L595.173 140.695L601.102 169.35Z" fill="#FE9184"/>
<path d="M605.952 145.473C605.952 145.473 609.696 152.803 604.651 162.398" stroke="#4F3B32" stroke-width="1.27" stroke-linecap="round" stroke-linejoin="round"/>
<path d="M530.773 222.324L583.562 150.798L605.952 189.946C605.952 189.946 573.225 251.356 544.283 270.663L530.773 222.324Z" fill="#E1C8CE"/>
<path d="M428.447 251.773C428.447 251.773 506.525 240.563 530.774 222.285L544.283 270.572C544.283 270.572 490.688 315.24 440.11 308.678L428.447 251.773Z" fill="#E1C8CE"/>
<path d="M439.056 289.41C439.056 289.41 468.805 307.832 525.676 283.747C525.676 283.747 486.02 311.894 446.194 309.329L439.056 289.41Z" fill="#C6ABB3"/>
<path d="M441.865 251.122L351.266 255.756C347.611 255.946 344.103 257.26 341.222 259.52C338.341 261.781 336.227 264.876 335.169 268.385C331.581 280.232 328.863 302.429 335.429 341.824C342.815 386.193 323.298 421.578 323.298 421.578C323.298 421.578 369.742 450.428 428.72 425.614C428.72 425.614 440.63 342.905 442.671 269.973C442.801 265.208 446.637 250.874 441.865 251.122Z" fill="#E1C8CE"/>
<path d="M431.983 262.318C431.983 262.318 476.632 327.139 433.595 344.233L423.35 269.335L431.983 262.318Z" fill="#E1C8CE"/>
<path d="M335.429 338.049L350.265 329.261C350.265 329.261 344.128 352.695 335.559 381.909C335.611 381.962 338.758 365.766 335.429 338.049Z" fill="#C6ABB3"/>
<path d="M343.556 257.97L236.106 322.752L260.134 373.955C260.134 373.955 335.429 341.824 357.65 324.067L353.489 282.159L343.556 257.97Z" fill="#E1C8CE"/>
<path d="M190.026 283.018L169.535 248.947C168.892 247.866 167.853 247.078 166.638 246.752C165.424 246.426 164.131 246.588 163.034 247.203V247.203C161.991 247.774 161.195 248.71 160.799 249.832C160.404 250.954 160.435 252.183 160.888 253.283L165.166 263.698C165.166 263.698 157.105 281.443 174.554 298.914L190.026 283.018Z" fill="#FE9184"/>
<path d="M161.409 254.559L154.465 244.43C154.05 243.815 153.49 243.312 152.835 242.963C152.18 242.615 151.449 242.433 150.708 242.433C149.966 242.433 149.236 242.615 148.581 242.963C147.926 243.312 147.366 243.815 146.95 244.43L142.139 251.707C140.768 253.784 139.897 256.153 139.597 258.625C139.297 261.097 139.575 263.604 140.41 265.95C146.885 283.906 158.248 299.689 173.215 311.516L182.615 284.372L161.409 254.559Z" fill="#FE9184"/>
<path d="M161.409 254.559L165.166 263.75C165.166 263.75 156.832 271.835 165.699 285.4" stroke="#4F3B32" stroke-width="1.27" stroke-linecap="round" stroke-linejoin="round"/>
<path d="M236.106 322.752L189.987 271.6L157.976 305.853L216.98 374.45C219.761 377.688 223.446 380.019 227.561 381.144C231.676 382.269 236.033 382.137 240.072 380.764L260.134 373.955L236.106 322.752Z" fill="#E1C8CE"/>
<path d="M379.649 210.255L381.158 254.025C381.208 255.484 381.822 256.866 382.869 257.881C383.917 258.896 385.317 259.464 386.775 259.467H403.573C404.319 259.467 405.057 259.318 405.744 259.03C406.432 258.742 407.055 258.319 407.578 257.787C408.1 257.255 408.512 256.625 408.789 255.932C409.066 255.239 409.202 254.498 409.19 253.751L408.618 215.476L379.649 210.255Z" fill="#FE9184"/>
<path d="M381.795 205.777C381.795 205.777 388.751 237.022 408.904 238.884L408.553 215.45L381.795 205.777Z" fill="#503931"/>
<path d="M415.275 142.218C415.275 142.218 445.882 137.883 437.6 172.683C429.318 207.482 434.779 228.794 412.064 227.037C389.349 225.279 377.855 218.835 372.082 191.183C366.309 163.53 376.048 143.716 415.275 142.218Z" fill="#FE9184"/>
<path d="M381.795 199.853C381.795 199.853 388.374 188.891 375.294 171.85C375.294 171.85 403.625 138.86 438.081 154.665C438.081 154.665 438.081 112.5 377.309 127.5C347 137.5 342.853 171.667 358.17 191.131C373.486 210.594 377.309 207.417 377.309 207.417L381.795 199.853Z" fill="#282425"/>
<path d="M382.367 257.319C382.367 257.319 390.481 270.337 404.952 265.599C406.025 265.257 407.01 264.683 407.837 263.916C408.663 263.15 409.31 262.21 409.733 261.165C410.155 260.119 410.341 258.993 410.279 257.867C410.217 256.741 409.907 255.642 409.373 254.65C408.155 252.624 406.613 250.811 404.809 249.286L382.367 257.319Z" fill="#FE9184"/>
<path d="M421.074 191.274L425.04 198.187L421.243 201.025" stroke="#4F3B32" stroke-width="1.27" stroke-linecap="round" stroke-linejoin="round"/>
<path d="M402.975 167.475C402.975 167.475 413.299 166.629 413.377 170.834C413.377 170.834 413.377 173.672 404.366 174.245C395.356 174.818 389.596 174.154 388.764 171.472C387.932 168.79 398.138 167.501 402.975 167.475Z" fill="#4F3B32"/>
<path d="M430.878 167.775C430.878 167.775 424.078 167.033 423.077 170.469C423.077 170.469 422.479 172.8 428.434 173.295C434.389 173.789 436.326 173.06 436.612 171.094C437.054 168.738 434.181 167.814 430.878 167.775Z" fill="#4F3B32"/>
<path d="M400.57 186.287C400.55 186.897 400.711 187.499 401.032 188.018C401.354 188.536 401.821 188.947 402.376 189.199C402.931 189.452 403.548 189.533 404.149 189.434C404.75 189.336 405.309 189.061 405.754 188.644C406.199 188.227 406.511 187.688 406.65 187.094C406.789 186.5 406.749 185.878 406.535 185.307C406.321 184.735 405.943 184.24 405.448 183.884C404.954 183.528 404.365 183.327 403.756 183.306C402.939 183.282 402.146 183.581 401.549 184.14C400.953 184.698 400.601 185.47 400.57 186.287V186.287Z" fill="#4F3B32"/>
<path d="M424.143 185.949C424.117 186.491 424.253 187.028 424.533 187.492C424.813 187.956 425.225 188.326 425.716 188.555C426.206 188.784 426.754 188.862 427.289 188.779C427.824 188.696 428.322 188.455 428.721 188.088C429.119 187.72 429.399 187.243 429.525 186.716C429.652 186.188 429.618 185.635 429.43 185.127C429.242 184.619 428.907 184.178 428.468 183.86C428.029 183.543 427.505 183.364 426.964 183.345C426.246 183.32 425.548 183.58 425.02 184.067C424.492 184.555 424.176 185.231 424.143 185.949Z" fill="#4F3B32"/>
<path d="M410.503 203.785C410.503 203.785 411.986 207.691 417.642 206.818" stroke="#4F3B32" stroke-width="1.27" stroke-linecap="round" stroke-linejoin="round"/>
<path d="M377.975 214.582C383.985 212.105 386.852 205.22 384.378 199.202C381.905 193.185 375.028 190.315 369.019 192.791C363.009 195.268 360.142 202.153 362.616 208.171C365.089 214.188 371.966 217.058 377.975 214.582Z" fill="#FE9184"/>
<path d="M368.025 200.686C368.025 200.686 373.837 195.192 379.649 202.223" stroke="#4F3B32" stroke-width="1.27" stroke-linecap="round" stroke-linejoin="round"/>
<path d="M699.779 111.713L633.031 44.879C629.66 41.5031 624.194 41.5031 620.822 44.879L569.869 95.8973C566.498 99.2732 566.498 104.747 569.869 108.123L636.617 174.956C639.989 178.332 645.455 178.332 648.827 174.956L699.779 123.938C703.151 120.562 703.151 115.089 699.779 111.713Z" fill="#F45555"/>
<rect x="625.203" y="91.8284" width="25.9121" height="13.257" rx="6.62848" transform="rotate(45 625.203 91.8284)" stroke="white" stroke-width="4"/>
<circle cx="626" cy="112" r="5" fill="#F45555"/>
<circle cx="641" cy="109" r="5" fill="#F45555"/>
<rect x="634.849" y="101.475" width="25.9121" height="13.257" rx="6.62848" transform="rotate(45 634.849 101.475)" stroke="white" stroke-width="4"/>
</svg>
