<?xml version="1.0" encoding="utf-8"?>
<!-- Generator: Adobe Illustrator 16.0.0, SVG Export Plug-In . SVG Version: 6.00 Build 0)  -->
<!DOCTYPE svg PUBLIC "-//W3C//DTD SVG 1.1//EN" "http://www.w3.org/Graphics/SVG/1.1/DTD/svg11.dtd">
<svg version="1.1" id="Layer_1" xmlns="http://www.w3.org/2000/svg" xmlns:xlink="http://www.w3.org/1999/xlink" x="0px" y="0px"
	 width="140px" height="50px" viewBox="0 0 140 50" enable-background="new 0 0 140 50" xml:space="preserve">
<g>
	<path fill="#0192FC" d="M44.495,24.739c-0.001-2.396,0.02-4.793-0.015-7.188c-0.01-0.705,0.119-1.027,0.936-1.028
		c2.343-0.001,2.377-0.04,2.353,2.305c-0.01,0.832,0.16,1.1,1.032,0.857c0.538-0.149,1.17-0.138,1.722-0.022
		c0.963,0.202,1.644,0.757,1.644,1.863c0,3.557-0.007,7.116,0.009,10.674c0.003,0.545-0.153,0.75-0.735,0.782
		c-2.574,0.143-2.572,0.161-2.573-2.435c0-2.504,0.017-5.011-0.015-7.516c-0.006-0.465,0.317-1.292-0.543-1.259
		c-0.802,0.033-0.506,0.836-0.511,1.321c-0.025,2.941-0.048,5.881,0.008,8.821c0.016,0.889-0.279,1.09-1.112,1.076
		c-2.197-0.039-2.198-0.001-2.199-2.152C44.496,28.805,44.496,26.772,44.495,24.739"/>
	<path fill="#0292FC" d="M72.385,32.831c-0.887,0.282-1.796,0.093-2.695,0.129c-0.689,0.028-0.586-0.492-0.587-0.914
		c-0.003-2.972-0.002-5.944-0.003-8.916c0-0.289,0-0.581-0.017-0.87c-0.016-0.283-0.158-0.493-0.456-0.512
		c-0.344-0.02-0.542,0.188-0.58,0.515c-0.034,0.288-0.024,0.58-0.024,0.869c-0.002,2.972-0.021,5.944,0.012,8.916
		c0.007,0.69-0.162,0.937-0.897,0.94c-2.41,0.015-2.408,0.046-2.406-2.378c0.001-3.333,0.021-6.669-0.013-10.004
		c-0.008-0.734,0.173-1,0.957-1c1.439,0.001,2.867,0.252,4.324,0.017c1.084-0.174,1.975,0.35,2.408,1.449
		c0.265,0.457,0.296,0.956,0.294,1.471c-0.008,2.502,0.003,5.004-0.007,7.505C72.69,30.984,72.452,31.899,72.385,32.831"/>
	<path fill="#0292FC" d="M36.171,26.274c-0.002-1.307-0.021-2.613,0.003-3.921c0.026-1.312,0.706-2.188,1.969-2.535
		c1.286-0.353,2.593-0.335,3.877,0.002c1.147,0.302,1.751,1.104,1.813,2.294c0.019,0.361,0.006,0.726,0.006,1.088
		c0.002,2.707,0.003,2.695-2.675,2.429c-0.473-0.046-0.63-0.217-0.621-0.663c0.016-0.799,0.005-1.596-0.001-2.396
		c-0.002-0.365,0.017-0.785-0.486-0.82c-0.497-0.033-0.588,0.356-0.588,0.737c-0.009,2.577-0.009,5.155-0.003,7.732
		c0,0.386,0.107,0.793,0.576,0.754c0.442-0.039,0.507-0.441,0.505-0.835c-0.005-0.761-0.002-1.523,0.007-2.286
		c0.004-0.242-0.052-0.602,0.277-0.617c0.904-0.043,1.812-0.04,2.717,0.001c0.332,0.016,0.284,0.369,0.286,0.612
		c0.007,0.98,0.03,1.962-0.009,2.941c-0.025,0.636-0.305,1.192-0.804,1.61c-1.396,1.171-4.896,0.954-6.185-0.333
		c-0.481-0.481-0.659-1.021-0.661-1.657C36.169,29.033,36.173,27.653,36.171,26.274"/>
	<path fill="#0192FC" d="M57.107,24.697c0-2.43,0.018-4.86-0.012-7.29c-0.008-0.646,0.167-0.895,0.852-0.879
		c1.777,0.043,3.556,0.063,5.331-0.004c0.922-0.034,0.852,0.481,0.865,1.094c0.013,0.648-0.01,1.066-0.891,1.067
		c-2.49,0.005-2.49,0.049-2.482,2.587c0,0.144,0.025,0.294-0.002,0.433c-0.214,1.146,0.317,1.499,1.376,1.332
		c0.248-0.039,0.512,0.027,0.76-0.01c0.916-0.134,0.949,0.398,0.977,1.104c0.031,0.817-0.326,0.95-1.032,0.947
		c-2.077-0.006-2.077,0.019-2.077,2.129c0,0.979,0.016,1.959-0.006,2.938c-0.012,0.509,0.176,0.724,0.697,0.705
		c0.688-0.026,1.378,0.016,2.067-0.006c0.759-0.022,0.672,0.514,0.643,0.97c-0.029,0.447,0.261,1.129-0.58,1.14
		c-1.995,0.023-3.99,0.013-5.984,0.011c-0.652-0.001-0.497-0.504-0.498-0.868C57.101,29.63,57.106,27.165,57.107,24.697"/>
	<path fill="#81C102" d="M106.166,24.736c0-2.393,0.018-4.785-0.01-7.176c-0.008-0.7,0.135-1.028,0.948-1.038
		c2.751-0.031,2.751-0.063,2.751,2.699c-0.001,3.515,0.025,7.031-0.02,10.546c-0.012,0.872,0.271,1.196,1.119,1.084
		c0.285-0.037,0.585,0.032,0.868-0.014c1.048-0.173,1.314,0.313,1.255,1.28c-0.041,0.658-0.249,0.88-0.905,0.865
		c-1.702-0.035-3.407-0.039-5.109,0.002c-0.739,0.018-0.912-0.284-0.903-0.966c0.033-2.428,0.014-4.856,0.014-7.283H106.166z"/>
	<path fill="#0192FD" d="M32.343,19.578c0.433,0.011,0.87-0.016,1.297,0.039c1.214,0.155,1.87,0.87,1.942,2.083
		c0.021,0.359,0.007,0.722,0.006,1.082c-0.003,2.625-0.002,2.611-2.642,2.429c-0.499-0.035-0.723-0.178-0.706-0.692
		c0.022-0.686,0.021-1.372-0.003-2.058c-0.019-0.546-0.157-0.982-0.841-0.556c-0.21,2.165-0.045,4.336-0.088,6.504
		c-0.024,1.231-0.04,2.465,0.01,3.694c0.028,0.685-0.219,0.845-0.87,0.854c-2.624,0.032-2.624,0.056-2.624-2.562
		c0-3.262,0.023-6.522-0.016-9.781c-0.009-0.76,0.21-0.979,0.97-0.979C29.965,19.635,31.159,19.832,32.343,19.578"/>
	<path fill="#82C107" d="M85.401,16.607c-0.877,0.311-0.408,1.41-0.852,1.565c-0.543,0.188-1.212,0.738-1.528,0.603
		c-0.55-0.235-1.462-0.303-1.598-0.652c-0.216-0.552-0.815-1.313-0.665-1.564c0.32-0.534,0.483-1.078,0.643-1.648
		c0.706,0.215,1.357-0.742,1.599-0.548c0.535,0.429,1.525,0.284,1.591,0.647C84.705,15.629,84.928,16.105,85.401,16.607"/>
	<path fill="#0292FD" d="M92.84,20.641c-1.055-1.338-2.448-1.132-3.858-0.846c-1-0.207-2.013-0.122-3.021-0.136
		c-0.625-0.01-0.959,0.286-0.924,0.922c0.189,3.405,0.043,6.813,0.08,10.219c0.022,2.143,0.004,2.143,2.098,2.141
		c1.083-0.001,1.419-0.021,1.528-0.569c-0.022-3.349-0.044-6.697-0.067-10.045c-0.03-0.061-0.022-0.116,0.024-0.167
		c0.75-0.399,0.975-0.284,0.983,0.599c0.02,2.286,0.03,4.573-0.004,6.859c-0.016,0.966,0.132,1.941-0.056,2.9
		c0.209,0.584,0.771,0.568,2.276,0.546c0.675-0.01,1.142-0.14,1.145-0.92c0.001-0.28,0.002-0.562,0.003-0.842
		c-0.021-2.838-0.034-5.676-0.069-8.514C92.971,22.071,92.889,21.356,92.84,20.641"/>
	<path fill="#0192FC" d="M9.219,25.275c-0.878-0.966-1.769-1.926-2.72-2.817c-0.935-0.875-1.012-1.952-0.945-3.101
		c0.019-0.329,0.174-0.576,0.504-0.612c0.403-0.045,0.612,0.229,0.635,0.588c0.037,0.617,0.071,1.238,0.017,1.851
		c-0.073,0.812,0.223,1.049,1.039,1.04c2.297-0.024,2.305,0.014,2.27-2.297c-0.007-0.469-0.063-0.94-0.154-1.399
		c-0.132-0.676-0.51-1.237-1.132-1.519c-1.86-0.837-3.735-0.81-5.544,0.144c-0.587,0.308-0.97,0.869-1.053,1.572
		c-0.25,2.102-0.326,4.15,1.561,5.674c0.274,0.222,0.468,0.545,0.701,0.821c1.377,1.161,2.676,2.354,2.353,4.428
		c-0.08,0.512-0.028,1.079-0.776,1.048c-0.67-0.028-0.667-0.534-0.665-1.024c0.003-0.869-0.019-1.739,0.007-2.607
		c0.015-0.514-0.175-0.711-0.695-0.698c-0.794,0.021-1.591-0.015-2.386-0.026l0,0c-0.358,1.572-0.309,3.158-0.022,4.721
		c0.17,0.928,0.92,1.463,1.779,1.755c1.491,0.509,2.999,0.445,4.491-0.011c0.609-0.186,1.088-0.566,1.405-1.135
		C10.74,30.14,10.39,26.566,9.219,25.275"/>
	<path fill="#80C102" d="M129.679,22.014c0.003-0.549-0.064-1.073-0.261-1.582c-0.926-0.908-2.034-0.983-3.227-0.723
		c-0.271,0.06-0.513,0.224-0.833,0.12c-1.09-0.36-2.199-0.241-3.303-0.059c0,4.353,0,8.706-0.001,13.06
		c0.741,0.273,1.512,0.051,2.261,0.141c0.832,0.102,1.043-0.25,1.033-1.048c-0.042-3.009-0.021-6.017-0.008-9.025
		c0.002-0.433-0.189-1.099,0.502-1.116c0.804-0.019,0.548,0.709,0.55,1.155c0.023,3.299,0.017,6.598,0.021,9.896
		c3.284,0.336,3.277,0.336,3.263-2.921C129.664,27.279,129.664,24.646,129.679,22.014"/>
	<path fill="#F0FEFE" d="M89.805,33.088c1.012,0.001,2.024,0.002,3.037,0.003"/>
	<path fill="#0192FD" d="M80.768,20.385c0.003-0.578-0.206-0.715-0.753-0.744c-1.033-0.056-2.045,0.178-3.072,0.127
		c-1.372-0.327-2.669-0.341-3.675,0.876c-0.315,0.607-0.588,1.204-0.579,1.935c0.035,2.533,0.017,5.066,0.011,7.6
		c-0.001,0.549,0.057,1.077,0.373,1.547c0.404,0.547,0.641,1.274,1.474,1.352c0.602,0.459,1.319,0.183,2.081,0.306
		c-3.165,0.09-3.331,0.223-2.919,2.259c1.54,0.008,3.079,0.02,4.618,0.023c1.107,0.002,1.938-0.435,2.341-1.52
		c0.039-0.101,0.086-0.195,0.087-0.311C80.765,29.352,80.746,24.868,80.768,20.385 M77.514,30.245
		c-0.001,0.426-0.128,0.856-0.645,0.829c-0.538-0.028-0.535-0.499-0.536-0.905c-0.003-1.27-0.001-2.537,0-3.806
		c0.001-1.27,0.001-2.539,0.001-3.806c0-0.431,0.069-0.842,0.617-0.826c0.492,0.015,0.546,0.434,0.548,0.795
		C77.516,25.098,77.518,27.672,77.514,30.245"/>
	<path fill="#80C102" d="M138.017,17.56c0.006-0.822-0.246-1.042-1.049-1.035c-2.249,0.023-2.25-0.013-2.271,2.296
		c0,0.036-0.003,0.073,0.001,0.109c0.072,0.692-0.105,0.977-0.901,0.771c-1.042-0.269-2.086-0.185-2.991,0.519
		c-0.378,0.603-0.476,1.255-0.468,1.966c0.028,2.72,0.017,5.439,0.003,8.16c-0.002,0.551,0.065,1.08,0.244,1.598
		c0.78,0.937,1.859,1.458,2.978,1.182c1.176-0.291,2.303-0.181,3.451-0.143c0.744,0.022,1.006-0.206,1.001-0.979
		C137.984,27.188,137.98,22.374,138.017,17.56 M134.707,30.209c0,0.371,0.002,0.799-0.502,0.79
		c-0.438-0.008-0.588-0.376-0.588-0.772c-0.006-2.604-0.007-5.21-0.001-7.815c0.001-0.353,0.132-0.67,0.546-0.673
		c0.503-0.003,0.542,0.379,0.542,0.763c0,1.303,0,2.604,0,3.908h0.004C134.707,27.676,134.708,28.941,134.707,30.209"/>
	<path fill="#0292FC" d="M18.667,28.273c0.018-0.401-0.178-0.638-0.564-0.638c-0.062,0-0.124-0.002-0.186-0.003
		c0.215-0.026,0.424-0.101,0.616-0.277c0.368-1.354,0.136-2.737,0.159-4.104c0.045-2.733-0.87-3.629-3.629-3.658
		c-0.505-0.005-1.02,0.001-1.516,0.086c-1.83,0.308-2.567,1.185-2.577,3.04c-0.011,2.177,0.077,4.359-0.022,6.531
		c-0.121,2.649,0.628,3.99,4.341,3.894c0.29-0.007,0.578-0.063,0.865-0.103c1.117-0.152,1.994-0.642,2.432-1.743
		C18.762,30.294,18.621,29.281,18.667,28.273 M14.263,24.872c0-0.864-0.008-1.729,0.03-2.591c0.013-0.295,0.193-0.561,0.55-0.556
		c0.437,0.007,0.515,0.32,0.52,0.671c0.006,0.397,0.001,0.793,0.001,1.19c-0.004,0-0.008,0-0.013,0c0,0.432,0.013,0.864-0.002,1.297
		c-0.015,0.383-0.292,0.452-0.605,0.448C14.444,25.326,14.263,25.179,14.263,24.872 M15.416,27.769
		c-0.054,0.05-0.099,0.102-0.139,0.154c0.021,0.054,0.04,0.11,0.054,0.172c0.008,0.758,0.077,1.523,0.005,2.274
		c-0.057,0.605-0.349,1.003-0.933,0.323c0.009-0.817,0.015-1.636,0.027-2.455c0.005-0.247-0.011-0.523,0.313-0.597
		c0.184-0.041,0.313-0.005,0.405,0.081c0.265-0.07,0.616-0.101,1.075-0.116C15.954,27.628,15.684,27.674,15.416,27.769"/>
	<path fill="#0192FD" d="M99.413,27.639c-1.131-0.059-1.506,0.307-1.365,1.396c0.064,0.497,0.01,1.014-0.047,1.516
		c-0.028,0.26-0.24,0.464-0.529,0.453s-0.482-0.216-0.49-0.49c-0.025-0.905-0.028-1.812-0.014-2.716
		c0.007-0.474,0.386-0.441,0.712-0.443c0.943-0.005,1.885-0.002,2.826-0.007c0.359-0.002,0.826,0.047,0.802-0.476
		c-0.099-2.079,0.416-4.2-0.41-6.23c-1.716-1.359-3.645-1.265-5.586-0.727c-0.759,0.211-1.388,0.738-1.607,1.589
		C93.39,21.859,93.4,22.297,93.4,22.73c-0.001,2.453-0.001,4.905,0,7.359c0,0.436,0.001,0.871,0.326,1.221
		c0.101,0.424,0.308,0.781,0.67,1.035c1.557,0.952,3.237,0.961,4.929,0.551c1.356-0.327,1.93-1.106,2.004-2.481
		c0.016-0.289,0.01-0.578,0.005-0.868C101.304,27.393,101.617,27.75,99.413,27.639 M96.954,22.383
		c0.006-0.354,0.138-0.67,0.557-0.653c0.409,0.015,0.526,0.346,0.545,0.688c0.023,0.396,0.005,0.798,0.005,1.195
		c0.001,0.397,0.005,0.796,0,1.194c-0.005,0.378-0.237,0.484-0.575,0.483c-0.355-0.001-0.535-0.154-0.534-0.518
		C96.954,23.977,96.941,23.18,96.954,22.383"/>
	<path fill="#0192FD" d="M27.157,22.327c-0.001-0.266,0.143-0.586-0.172-0.792c-0.256-0.796-0.714-1.438-1.54-1.676
		c-1.425-0.411-2.875-0.429-4.285,0.055c-1.018,0.351-1.603,1.091-1.593,2.22c0.004,0.473,0.058,0.952-0.013,1.414
		c-0.174,1.136,0.285,1.596,1.405,1.447c0.502,0.134,1.001,0.313,1.524,0.118c-0.309,0.148-0.668,0.214-0.873,0.528
		c-0.983,0.656-2.116,1.214-2.201,2.596c-0.061,1.005-0.041,2.018,0.006,3.022c0.049,1.039,0.636,1.594,1.671,1.805
		c0.839,0.169,1.645,0.037,2.464-0.026c0.85-0.263,1.721-0.09,2.575-0.076c0.764,0.014,1.073-0.134,1.06-0.997
		C27.131,28.753,27.167,25.539,27.157,22.327 M23.782,28.004c0.038,0.354,0.009,0.717,0.009,1.075h-0.004
		c0,0.431,0.01,0.861-0.003,1.29c-0.012,0.357-0.159,0.657-0.559,0.652c-0.332-0.003-0.522-0.265-0.529-0.576
		c-0.016-0.824-0.026-1.649,0.024-2.472c0.026-0.427,0.324-0.782,0.769-0.75C23.982,27.258,23.751,27.724,23.782,28.004
		 M22.709,24.977c0,0.009,0,0.017,0,0.022c0,0-0.009-0.01-0.014-0.014c-0.037,0.027-0.075,0.051-0.114,0.074
		c0.048-0.043,0.089-0.088,0.127-0.134c-0.001-0.804-0.007-1.61,0-2.415c0.003-0.38,0.075-0.777,0.549-0.779
		c0.48-0.002,0.511,0.394,0.542,0.775C23.952,24.371,23.85,24.621,22.709,24.977"/>
	<polyline fill="#0192FD" points="22.702,24.98 22.709,24.979 22.709,24.973 22.702,24.98 	"/>
	<path fill="#80C003" d="M121.278,22.025c0-0.247,0.063-0.51-0.118-0.731l0.003,0.008c-0.272-0.758-0.753-1.301-1.556-1.513
		c-1.25-0.21-2.499-0.318-3.755-0.027c-1.423,0.33-2.105,1.134-2.114,2.569c-0.006,0.864,0.037,1.729,0.056,2.592
		c0.145,0.004,0.289,0.014,0.433,0.011c0.822-0.02,1.832,0.244,2.414-0.14c0.597-0.396,0.144-1.47,0.218-2.243
		c0.042-0.431,0.105-0.842,0.635-0.806c0.493,0.033,0.44,0.474,0.46,0.83c0.117,2.081-0.117,2.376-2.65,3.313
		c-1.318,0.83-1.952,1.981-1.739,3.568c0.062,0.463,0.027,0.941,0.008,1.412c-0.039,1.008,0.323,1.763,1.298,2.153
		c0.246,0.227,0.551,0.124,0.829,0.133c1.578,0.045,3.14-0.315,4.715-0.202c0.768,0.055,0.885-0.278,0.878-0.945
		C121.264,28.68,121.281,25.353,121.278,22.025 M117.939,28.008c0.042,0.357,0.01,0.722,0.009,1.084
		c-0.001,0.435,0.002,0.869-0.002,1.303c-0.003,0.316-0.099,0.598-0.465,0.612c-0.397,0.016-0.595-0.252-0.603-0.618
		c-0.015-0.796-0.03-1.594,0.015-2.387c0.024-0.43,0.312-0.805,0.756-0.778C118.142,27.251,117.907,27.728,117.939,28.008"/>
	<path fill="#0392FB" d="M84.736,32.786c-3.233,0.446-3.233,0.446-3.233-2.731c0-3.119,0.022-6.239-0.014-9.358
		c-0.009-0.753,0.199-1.06,0.973-0.984c0.755,0.073,1.517,0.068,2.277,0.098C84.737,24.136,84.736,28.462,84.736,32.786"/>
</g>
</svg>
