<svg xmlns="http://www.w3.org/2000/svg" width="78.495" height="78.09" viewBox="0 0 78.495 78.09"><defs><style>.a{fill:#fff;opacity:0.15;}.b,.c,.d,.f{fill:none;}.b,.d{stroke:#000;stroke-width:1.5px;}.d{stroke-linecap:round;}.e,.g{stroke:none;}.g{fill:#000;}</style></defs><g transform="translate(-505 -1142)"><path class="a" d="M29,0A29,29,0,1,1,0,29,29,29,0,0,1,29,0Z" transform="translate(521 1158)"/><g class="b" transform="translate(517 1154)"><circle class="e" cx="22" cy="22" r="22"/><circle class="f" cx="22" cy="22" r="21.25"/></g><g class="b" transform="translate(505 1142)"><circle class="e" cx="34" cy="34" r="34"/><circle class="f" cx="34" cy="34" r="33.25"/></g><g class="c" transform="translate(533.838 1181.027) rotate(-47)"><path class="e" d="M7,0l7,12H0Z"/><path class="g" d="M 7 2.976958274841309 L 2.61155891418457 10.5 L 11.38844108581543 10.5 L 7 2.976958274841309 M 7 0 L 14 12 L 0 12 L 7 0 Z"/></g><path class="d" d="M.407.414,31,31" transform="translate(546.5 1183.5)"/><path class="b" d="M4925.147,1218.707l-8.03-8.03v-5.562h6.893l7.211,7.211-4.682,2.272Z" transform="translate(-4349)"/></g></svg>