<?xml version="1.0" encoding="utf-8"?>
<!-- Generator: Adobe Illustrator 16.0.0, SVG Export Plug-In . SVG Version: 6.00 Build 0)  -->
<!DOCTYPE svg PUBLIC "-//W3C//DTD SVG 1.1//EN" "http://www.w3.org/Graphics/SVG/1.1/DTD/svg11.dtd">
<svg version="1.1" id="Layer_1" xmlns="http://www.w3.org/2000/svg" xmlns:xlink="http://www.w3.org/1999/xlink" x="0px" y="0px"
	 width="140px" height="50px" viewBox="0 0 140 50" enable-background="new 0 0 140 50" xml:space="preserve">
<g>
	<path fill="#2B2B2B" d="M45.731,40.093c-6.202,0-11.909-0.024-17.614,0.021c-1.188,0.009-1.035-0.694-1.035-1.424
		c0.003-5.107,0.002-10.216,0.002-15.323c0-2.133,0.041-4.267-0.019-6.397c-0.027-0.967,0.156-1.396,1.269-1.38
		c4.546,0.063,9.093,0.044,13.639,0.012c0.871-0.006,1.277,0.122,1.305,1.16c0.105,3.991,0.149,3.99-3.835,3.99
		c-1.74,0-3.48,0.033-5.22-0.013c-0.827-0.022-1.165,0.173-1.197,1.103c-0.116,3.379-0.156,3.378,3.289,3.378h0.336
		c4.007,0,3.973-0.002,3.816,4.038c-0.036,0.934-0.375,1.124-1.199,1.102c-1.683-0.045-3.369,0.021-5.051-0.028
		c-0.812-0.023-1.164,0.126-1.192,1.075c-0.104,3.546-0.147,3.544,3.457,3.544c0.562,0,1.128,0.049,1.684-0.008
		c2.44-0.251,4.627-0.164,5.407,2.852C43.788,38.622,44.646,39.198,45.731,40.093"/>
	<path fill="#2B2B2B" d="M18.662,15.221c2.018,0.102,4.224,0.609,6.212,1.919c0.769,0.508,1.201,1.006,0.514,1.87
		c-0.067,0.085-0.093,0.203-0.145,0.302c-0.539,1.046-0.829,2.463-1.685,3.039c-1.014,0.685-1.897-0.885-3.002-1.144
		c-1.209-0.284-2.371-0.702-3.621-0.291c-0.736,0.241-1.304,0.648-1.411,1.488c-0.101,0.789,0.338,1.307,0.958,1.63
		c0.942,0.489,1.931,0.888,2.896,1.335c1.118,0.517,2.268,0.979,3.338,1.583c2.714,1.531,4.035,3.861,3.587,6.995
		c-0.449,3.15-2.335,5.221-5.34,6.077c-4.254,1.213-8.075,0.054-11.553-2.521c-0.457-0.338-0.553-0.647-0.181-1.079
		c0.073-0.085,0.157-0.16,0.222-0.25c0.824-1.129,1.422-2.731,2.531-3.259c1.119-0.534,2.14,1.23,3.432,1.565
		c1.09,0.284,2.144,0.647,3.294,0.403c0.83-0.176,1.473-0.544,1.666-1.438c0.206-0.948-0.351-1.513-1.087-1.875
		c-1.709-0.84-3.465-1.583-5.173-2.426c-1.855-0.915-3.432-2.161-4.189-4.174c-1.232-3.273,0.285-6.974,3.544-8.67
		C14.991,15.51,16.636,15.202,18.662,15.221"/>
	<path fill="#A0CB3A" d="M59.073,25.045c-0.002,2.523,0.024,5.046-0.008,7.568c-0.06,4.846-3.58,8.083-8.521,7.873
		c-4.812-0.205-8.085-3.951-7.697-8.749c0.056-0.698,0.238-1.028,0.976-0.988c0.727,0.039,1.457,0.006,2.186,0.006
		c2.447-0.001,2.45-0.001,2.9,2.352c0.217,1.122,0.845,1.862,2.015,1.897c1.249,0.039,2.117-0.672,2.15-1.894
		c0.108-3.863,0.092-7.729,0.118-11.594c0.005-0.569-0.334-0.788-0.859-0.791c-0.28-0.002-0.562-0.004-0.842-0.007
		c-3.343-0.028-3.275-0.029-3.355-3.363c-0.034-1.391,0.36-1.842,1.771-1.777c2.462,0.114,4.937,0.107,7.398,0.002
		c1.355-0.058,1.874,0.272,1.805,1.73C58.988,19.884,59.075,22.466,59.073,25.045"/>
	<path fill="#323232" d="M95.783,23.438c0-0.168,0-0.337,0-0.505c0-3.886,0.001-3.891,3.919-3.703
		c0.437,0.021,1.08-0.251,1.098,0.604c0.021,0.942-0.676,0.687-1.186,0.721c-0.393,0.026-0.792,0.049-1.179-0.002
		c-0.93-0.125-1.104,0.319-1.111,1.155c-0.008,0.858,0.342,1.082,1.099,0.998c0.277-0.03,0.562,0.002,0.842-0.005
		c0.494-0.012,0.877,0.053,0.873,0.707c-0.004,0.713-0.484,0.591-0.92,0.633c-0.833,0.079-2.032-0.48-1.896,1.231
		c0.063,0.801,0.274,1.111,1.08,1.04c0.611-0.054,1.233-0.003,1.851-0.011c0.455-0.006,0.761,0.117,0.73,0.658
		c-0.027,0.486-0.259,0.689-0.744,0.684c-1.234-0.014-2.47-0.021-3.704,0c-0.757,0.014-0.758-0.472-0.754-1.007
		C95.788,25.571,95.783,24.505,95.783,23.438"/>
	<path fill="#2F2F2F" d="M67.835,25.354c-0.529,2.342-3.216,3.24-5.056,1.711c-0.36-0.3-0.528-0.534-0.193-0.955
		c0.257-0.323,0.47-0.655,0.938-0.31c0.134,0.1,0.28,0.188,0.435,0.249c0.805,0.321,1.739,0.65,2.211-0.33
		c0.496-1.032-0.558-1.252-1.2-1.621c-0.191-0.109-0.412-0.174-0.611-0.271c-1.84-0.9-2.403-2.052-1.664-3.399
		c0.733-1.337,2.879-1.793,4.309-0.923c0.339,0.206,0.715,0.367,0.473,0.887c-0.209,0.45-0.442,0.791-1.012,0.468
		c-0.19-0.109-0.403-0.203-0.618-0.246c-0.678-0.135-1.442-0.236-1.761,0.526c-0.354,0.854,0.403,1.152,1.003,1.46
		c0.871,0.447,1.957,0.583,2.393,1.658C67.629,24.613,67.867,24.94,67.835,25.354"/>
	<path fill="#333333" d="M88.652,19.264c1.383,0.02,1.383,0.02,1.459,2.89c0.505-0.21,0.957-0.461,1.442-0.587
		c1.455-0.378,2.484,0.284,2.606,1.749c0.098,1.165,0.035,2.343,0.05,3.515c0.006,0.51-0.124,0.837-0.745,0.842
		c-0.619,0.005-0.756-0.299-0.746-0.826c0.016-0.838,0.009-1.676,0.002-2.514c-0.006-0.616,0.049-1.302-0.798-1.42
		c-0.844-0.118-1.379,0.341-1.684,1.082c-0.309,0.75-0.207,1.556-0.141,2.319c0.1,1.105-0.31,1.533-1.387,1.366
		c-0.818-1.251-0.608-2.674-0.526-4.017C88.276,22.197,88.505,20.731,88.652,19.264"/>
	<path fill="#A5D041" d="M66.712,31.999c0,1.008,0.133,2.039-0.032,3.02c-0.234,1.4-1.221,2.108-2.646,2.077
		c-1.365-0.03-2.163-0.797-2.469-2.101c-0.093-0.396-0.165-0.841,0.383-0.93c0.404-0.064,0.95-0.242,1.095,0.405
		c0.163,0.73,0.454,1.35,1.324,1.136c0.965-0.235,0.773-1.1,0.791-1.809c0.016-0.673-0.021-1.348,0.009-2.02
		c0.046-1.061,0.135-2.105-1.475-1.875c-0.377,0.054-0.602-0.204-0.613-0.619c-0.015-0.521,0.275-0.683,0.731-0.686
		c0.505-0.002,1.015,0.038,1.514-0.02c1.08-0.124,1.566,0.264,1.439,1.4c-0.073,0.665-0.013,1.346-0.013,2.02
		C66.738,31.999,66.725,31.999,66.712,31.999"/>
	<path fill="#2F2F2F" d="M101.434,24.584c0-0.337,0-0.675,0-1.011c0.001-1.626-0.001-1.607,1.579-1.446
		c0.228,0.022,0.478-0.24,0.726-0.352c1.865-0.833,3.136-0.16,3.319,1.836c0.098,1.057,0.013,2.128,0.024,3.193
		c0.005,0.529-0.156,0.838-0.761,0.843c-0.602,0.005-0.776-0.278-0.765-0.822c0.02-0.841,0.008-1.684,0.004-2.525
		c-0.002-0.625,0.047-1.316-0.808-1.417c-0.834-0.1-1.387,0.333-1.674,1.106c-0.303,0.817-0.113,1.669-0.166,2.504
		c-0.033,0.53,0.156,1.173-0.771,1.15c-0.956-0.023-0.656-0.718-0.69-1.208c-0.042-0.615-0.01-1.235-0.01-1.852H101.434z"/>
	<path fill="#323232" d="M121.343,23.614c-0.004,0.593-0.007,1.188-0.011,1.78c-0.588,0.346-0.23,0.903-0.282,1.358
		c-0.052,0.473-0.02,0.871-0.689,0.893c-0.74,0.021-0.817-0.395-0.811-0.956c0.011-0.785,0.018-1.571-0.002-2.356
		c-0.016-0.676,0.019-1.442-0.953-1.467c-0.827-0.02-1.436,0.437-1.576,1.237c-0.137,0.764-0.143,1.567-0.08,2.345
		c0.077,0.982-0.292,1.351-1.245,1.168c-0.908-1.989-0.744-3.991-0.075-5.999c1.075,0.249,2.075,0.18,3.184-0.132
		C120.4,21.036,120.771,22.558,121.343,23.614"/>
	<path fill="#A5CF42" d="M83.894,33.953c0.001-0.503-0.007-1.006,0.002-1.51c0.025-1.443,0.041-1.482,1.447-1.035
		c0.513,0.164,0.667-0.255,0.985-0.385c1.769-0.722,3.032,0.018,3.123,1.903c0.048,1.004-0.004,2.014,0.022,3.02
		c0.015,0.532,0.071,1.021-0.687,1.056c-0.736,0.034-0.796-0.409-0.784-0.97c0.018-0.782,0.004-1.565,0.003-2.348
		c-0.001-0.623,0.04-1.339-0.755-1.475c-0.811-0.139-1.381,0.323-1.697,1.068c-0.366,0.858-0.145,1.768-0.198,2.652
		c-0.03,0.502,0.057,1.053-0.711,1.063c-0.745,0.009-0.752-0.501-0.752-1.027C83.893,35.295,83.893,34.624,83.894,33.953"/>
	<path fill="#303030" d="M82.923,23.015c1.428-1.622,3.108-2.019,5.072-1.048c0.552,0.94,0.118,1.337-0.809,1.41
		c-0.328,0.027-0.657-0.132-0.993-0.106c-0.845,0.063-1.375,0.515-1.388,1.367c-0.014,0.925,0.615,1.23,1.446,1.231
		c0.337,0,0.662-0.083,0.985-0.168c0.469-0.122,0.887-0.136,1.098,0.421c0.197,0.52,0.274,0.987-0.414,1.193
		c-3.743,1.225-5.659-0.453-4.958-4.343L82.923,23.015z"/>
	<path fill="#A3CD40" d="M95.369,32.26c0-0.895-0.011-1.788,0.004-2.683c0.007-0.483-0.111-1.066,0.665-1.098
		c0.892-0.035,0.768,0.618,0.771,1.16c0.012,1.341-0.006,2.682,0.008,4.022c0.009,0.756-0.199,1.572,0.671,2.088
		c0.313,0.185,0.294,0.613,0.125,0.915c-0.238,0.428-0.647,0.332-1.039,0.223c-0.816-0.229-1.18-0.801-1.191-1.611
		c-0.017-1.006-0.004-2.011-0.004-3.017C95.376,32.26,95.372,32.26,95.369,32.26"/>
	<path fill="#303030" d="M79.196,22.962c0.149-1.652,0.173-1.686,1.463-0.785c0.377,0.264,0.444,0.004,0.616-0.132
		c1.392-1.104,1.688-0.355,1.647,0.969l0.04-0.042c-1.903,0.267-2.22,0.654-2.205,2.967c0.006,1.013,0.083,1.976-1.41,1.692
		C78.826,26.09,79.098,24.523,79.196,22.962"/>
	<path fill="#A3CE3F" d="M79.908,31.052c0.382,0.001,1.036-0.119,1.101,0.023c0.423,0.942,0.768,0.385,1.219,0.058
		c0.283-0.203,0.717-0.517,1.024-0.064c0.263,0.386,0.299,1.055-0.146,1.175c-2.048,0.549-1.798,2.153-1.775,3.637
		c0.018,1.17-0.483,1.359-1.439,0.916C79.675,34.881,79.652,32.966,79.908,31.052"/>
	<path fill="#303030" d="M114.937,21.642c-0.435-0.001-0.867-0.001-1.301-0.002c-0.269,2.002-0.409,4.004,0.064,5.998
		c0.395-0.01,0.787-0.02,1.181-0.029C114.899,25.62,114.918,23.631,114.937,21.642"/>
	<path fill="#2E2E2E" d="M113.649,22.964c0.012,1.069,0.023,2.138,0.035,3.207C113.873,25.1,113.88,24.031,113.649,22.964"/>
	<path fill="#A8D247" d="M79.527,31.095L79.527,31.095c-1.116-0.361-1.715-0.104-1.607,1.216c0.058,0.717,0.051,1.473-0.117,2.164
		c-0.184,0.75-0.748,1.302-1.598,1.188c-0.847-0.111-0.736-0.853-0.752-1.455c-0.018-0.783-0.017-1.566-0.007-2.349
		c0.009-0.623-0.249-0.925-0.902-0.896c-0.643,0.026-0.681,0.442-0.68,0.918c0,0.393-0.011,0.783-0.017,1.175
		c0.001,0.576,0.001,1.151,0.002,1.728c0.051,1.151,0.424,2.289,1.703,2.249c1.319-0.041,2.653-0.226,3.986-0.276l0,0
		C79.534,34.869,79.531,32.982,79.527,31.095"/>
	<path fill="#393939" d="M114.382,19.223c0.46-0.037,0.71,0.135,0.702,0.66c-0.009,0.63-0.374,0.708-0.883,0.703
		c-0.564-0.005-0.603-0.354-0.616-0.781C113.567,19.216,113.951,19.208,114.382,19.223"/>
	<path fill="#2E2E2E" d="M113.24,21.64c-0.995-0.185-1.984,0.069-3.021-0.145c-1.368-0.281-2.356,0.591-2.666,1.974
		c-0.25,1.116-0.199,2.238,0.624,3.17c1.008,1.139,2.25,0.897,3.533,0.452c-0.374,1.681-0.501,1.773-2.511,1.583
		c-0.469-0.045-0.872-0.208-1.035,0.439c-0.178,0.711,0.401,0.709,0.774,0.827c1.972,0.626,3.531-0.189,4.362-2.245
		C113.281,25.677,113.26,23.658,113.24,21.64 M110.486,26.2c-1.129,0.041-1.508-0.772-1.584-1.775
		c0.044-0.942,0.389-1.688,1.443-1.705c1.068-0.018,1.446,0.733,1.457,1.675C111.814,25.3,111.566,26.161,110.486,26.2"/>
	<path fill="#A4D03F" d="M73.848,33.057c-0.529-0.115-0.558-0.651-0.824-0.987c-1.252-1.579-3.62-1.757-5.044-0.371
		c-1.253,1.219-1.241,3.294,0.023,4.505c1.435,1.375,3.799,1.176,5.039-0.418c0.263-0.338,0.289-0.87,0.807-1.002
		C74.345,34.207,74.345,33.631,73.848,33.057 M70.354,35.769c-1.181,0.025-1.757-0.757-1.774-1.813
		c-0.02-1.071,0.605-1.763,1.73-1.896c1.152,0.099,1.753,0.796,1.778,1.862C72.114,35.015,71.505,35.742,70.354,35.769"/>
	<path fill="#A5D141" d="M92.589,30.746c-0.861-0.012-2.215-0.028-2.212,0.922c0.004,1.419,1.167,0.252,1.8,0.355
		c0.501,0.082,1.122,0.017,1.139,0.685c0.016,0.574-0.581,0.316-0.912,0.417c-0.584,0.179-1.225,0.26-1.74,0.557
		c-1.196,0.688-1.3,1.807-0.419,2.752c1.348,1.447,2.892-0.02,4.363,0.272c0.722,0.144,0.211-1.328,0.447-1.896
		C95.079,31.813,94.454,30.772,92.589,30.746 M92.194,35.805c-0.428,0.04-0.802-0.129-0.835-0.589
		c-0.058-0.833,0.627-0.933,1.209-1.046c0.361-0.07,0.805-0.104,0.832,0.518C93.248,35.302,92.888,35.739,92.194,35.805"/>
	<path fill="#323232" d="M72.38,25.796c-0.559-0.028-1.14,0.147-1.839-0.239c3.209-0.281,3.209-0.281,3.054-2.237
		c-0.515-1.287-1.435-2.006-2.849-1.869c-1.432,0.139-2.377,0.914-2.67,2.368c-0.072,0.355-0.098,0.698-0.597,0.438
		c-0.019,0.41-0.084,0.836,0.355,1.098c1.669,2.638,3.01,3.031,5.686,1.662C73.929,25.875,73.124,25.834,72.38,25.796
		 M69.742,23.519c-0.018-0.582,0.581-0.896,1.211-0.891c0.565,0.005,1.113,0.298,1.088,0.815c-0.037,0.748-0.774,0.286-1.174,0.441
		C70.461,23.783,69.76,24.105,69.742,23.519"/>
	<path fill="#2F2F2F" d="M76.001,21.479c-0.669,0.104-1.771,0.109-1.707,0.919c0.101,1.271,1.048,0.378,1.652,0.32
		c0.167-0.015,0.338-0.031,0.502-0.01c0.409,0.053,0.823,0.205,0.875,0.649c0.072,0.624-0.478,0.485-0.818,0.506
		c-0.861,0.05-1.645,0.307-2.367,0.771c-0.918,0.709-0.688,1.519-0.207,2.352c0.572,0.448,1.24,1.018,1.93,0.712
		c1.028-0.458,1.977-0.037,2.958-0.06l0,0c0.025-1.554,0.052-3.106,0.078-4.661C78.295,21.773,77.3,21.275,76.001,21.479
		 M77.353,25.502c-0.198,0.649-0.639,1.016-1.315,1.104c-0.445-0.138-0.911-0.331-0.793-0.883c0.161-0.758,0.849-0.778,1.457-0.818
		C77.09,24.878,77.547,24.863,77.353,25.502"/>
	<path fill="#323232" d="M124.126,24.92c0.49-0.076,1.009-0.067,1.505-0.009c1.251,0.146,1.272-0.598,1.035-1.442
		c-0.305-1.078-0.881-1.97-2.145-2.033c-1.59-0.078-2.663,0.659-3.178,2.179c-0.493,0.591-0.497,1.184-0.012,1.78
		c0.932,2.134,2.773,2.964,4.515,2.029c0.376-0.203,0.854-0.325,0.61-0.963c-0.264-0.684-0.604-0.353-1.035-0.203
		c-0.403,0.141-0.878,0.148-1.313,0.106c-0.606-0.06-1.17-0.464-1.162-1.028C122.958,24.559,123.709,24.985,124.126,24.92
		 M124.248,22.59c0.561,0.009,1.106,0.298,1.079,0.825c-0.046,0.9-0.85,0.411-1.312,0.468c-0.367,0.046-0.925,0.236-1.059-0.429
		C123.183,22.845,123.631,22.58,124.248,22.59"/>
</g>
</svg>
