<svg xmlns="http://www.w3.org/2000/svg" xmlns:xlink="http://www.w3.org/1999/xlink" width="87.17" height="78.095" viewBox="0 0 87.17 78.095"><defs><style>.a,.c,.d,.i{fill:none;}.b,.g{fill:#f26145;}.c,.e,.i{stroke:#000;}.c,.d,.e,.i{stroke-width:1.5px;}.d{stroke:#f26145;}.d,.e,.i{stroke-linecap:round;}.e,.f{fill:#fff;}.h{clip-path:url(#a);}.j,.k{stroke:none;}.k{fill:#000;}</style><clipPath id="a"><rect class="a" width="14" height="16.5"/></clipPath></defs><g transform="translate(-526.635 -1865.83)"><g transform="translate(-1511.923 62)"><g transform="translate(1542 117.5)"><g transform="translate(-352.225 1361.846)"><circle class="b" cx="5.52" cy="5.52" r="5.52" transform="translate(924.914 346.234)"/><circle class="c" cx="12.52" cy="12.52" r="12.52" transform="translate(899.874 325.234)"/><circle class="b" cx="8.825" cy="8.825" r="8.825" transform="translate(848.784 384.929)"/><circle class="b" cx="1.591" cy="1.591" r="1.591" transform="translate(864.843 339.234)"/></g><g transform="translate(-414)"><g transform="translate(38.674 54.219)"><line class="d" x1="1.187" y1="1.187" transform="translate(941.5 1687.874)"/><line class="d" y1="1.781" transform="translate(948.029 1685.5)"/><line class="d" y1="0.594" x2="0.594" transform="translate(954.557 1688.468)"/></g></g></g></g><path class="e" d="M544.127,1877.874h-8.578v56h56v-56H552.5"/><g transform="translate(534.186 1876.683)"><g transform="translate(0.205)"><path d="M379.886,53.755a1.145,1.145,0,0,0-1.145-1.145h-.007a1.145,1.145,0,1,0,1.152,1.145Z" transform="translate(-334.374 -46.585)"/><path class="b" d="M433.827,53.755a1.145,1.145,0,0,0-1.145-1.145h-.007a1.145,1.145,0,1,0,1.152,1.145Z" transform="translate(-382.137 -46.585)"/><path d="M325.973,53.755a1.145,1.145,0,0,0-1.145-1.145h-.007a1.145,1.145,0,1,0,1.152,1.145Z" transform="translate(-286.635 -46.585)"/><path d="M325.973,53.755a1.145,1.145,0,0,0-1.145-1.145h-.007a1.145,1.145,0,1,0,1.152,1.145Z" transform="translate(-310.364 -52.585)"/><g class="c" transform="translate(6.609 18.317)"><rect class="j" width="27" height="21" rx="2"/><rect class="a" x="0.75" y="0.75" width="25.5" height="19.5" rx="1.25"/></g><g class="f" transform="translate(9.609 29.317)"><path class="j" d="M 10.67535781860352 9.25 L 1.324641942977905 9.25 L 6 1.457736611366272 L 10.67535781860352 9.25 Z"/><path class="k" d="M 6 2.915473461151123 L 2.649284362792969 8.5 L 9.350715637207031 8.5 L 6 2.915473461151123 M 6 0 L 12 10 L 0 10 L 6 0 Z"/></g><g class="g" transform="translate(14.609 24.317)"><path class="j" d="M 15.71294975280762 14.25 L 1.287050724029541 14.25 L 8.5 1.521265864372253 L 15.71294975280762 14.25 Z"/><path class="k" d="M 8.5 3.042513847351074 L 2.574090957641602 13.5 L 14.4259090423584 13.5 L 8.5 3.042513847351074 M 8.5 0 L 17 15 L 0 15 L 8.5 0 Z"/></g><g class="h" transform="translate(37.365 20.317)"><g transform="translate(-37.365 -20.317)"><line class="i" x2="13" transform="translate(37.865 20.817)"/></g><g transform="translate(-37.365 -15.317)"><line class="i" x2="13" transform="translate(37.865 20.817)"/></g><g transform="translate(-37.365 -10.317)"><line class="i" x2="13" transform="translate(37.865 20.817)"/></g><g transform="translate(-37.365 -5.317)"><line class="i" x2="13" transform="translate(37.865 20.817)"/></g></g><g class="c" transform="translate(6.609 43.317)"><circle class="j" cx="4.5" cy="4.5" r="4.5"/><circle class="a" cx="4.5" cy="4.5" r="3.75"/></g><g class="c" transform="translate(18.609 43.317)"><circle class="j" cx="4.5" cy="4.5" r="4.5"/><circle class="a" cx="4.5" cy="4.5" r="3.75"/></g><g class="c" transform="translate(30.609 43.317)"><circle class="j" cx="4.5" cy="4.5" r="4.5"/><circle class="a" cx="4.5" cy="4.5" r="3.75"/></g><g class="c" transform="translate(42.609 43.317)"><circle class="j" cx="4.5" cy="4.5" r="4.5"/><circle class="a" cx="4.5" cy="4.5" r="3.75"/></g><line class="i" x2="18" transform="translate(7.109 6.817)"/><line class="i" x2="56" transform="translate(1.109 12.817)"/></g></g></g></svg>